<?xml version="1.0" standalone="no"?>
 <!DOCTYPE svg PUBLIC "-//W3C//DTD SVG 1.1//EN" 
 "http://www.w3.org/Graphics/SVG/1.1/DTD/svg11.dtd"> 
<svg
  xmlns:svg="http://www.w3.org/2000/svg"
  xmlns="http://www.w3.org/2000/svg"
  xmlns:xlink="http://www.w3.org/1999/xlink"
  version="1.1"
  width="157.4800mm" height="87.4776mm" viewBox="0.0000 0.0000 157.4800 87.4776">
<title>SVG Image created as esp-B_Cu.svg date 2026/03/04 12:56:00 </title>
  <desc>Image generated by PCBNEW </desc>
<g style="fill:#000000; fill-opacity:1.0000;stroke:#000000; stroke-opacity:1.0000;
stroke-linecap:round; stroke-linejoin:round;"
 transform="translate(0 0) scale(1 1)">
</g>
<g style="fill:none; 
stroke:#6FCCDB; stroke-width:1.0000; stroke-opacity:1; 
stroke-linecap:round; stroke-linejoin:round;">
<path d="M51.1550 34.2800
L50.0550 34.2800
" />
<path d="M46.7250 34.2800
L46.1250 34.2800
" />
<path d="M51.1550 42.9200
L50.0550 42.9200
" />
<path d="M46.7250 42.9200
L46.1250 42.9200
" />
<path style="fill:#6FCCDB; fill-opacity:1.0000; stroke:none;fill-rule:evenodd;"
d="M 78.6000,44.6000
79.1000,44.6000
79.1000,45.5000
78.6000,45.5000
Z" /> 
<path style="fill:#6FCCDB; fill-opacity:1.0000; stroke:none;fill-rule:evenodd;"
d="M 56.0800,47.4000
54.3800,47.4000
54.3800,45.7000
56.0800,45.7000
Z" /> 
</g>
<g style="fill:#6FCCDB; fill-opacity:1.0000; stroke:none;">
<circle cx="57.7700" cy="46.5500" r="0.8500" /> 
</g>
<g style="fill:#6FCCDB; fill-opacity:1.0000; stroke:none;">
<circle cx="60.3100" cy="46.5500" r="0.8500" /> 
</g>
<g style="fill:#6FCCDB; fill-opacity:1.0000; stroke:none;">
<circle cx="62.8500" cy="46.5500" r="0.8500" /> 
</g>
<g style="fill:#6FCCDB; fill-opacity:1.0000; stroke:none;">
<circle cx="76.3500" cy="30.0500" r="0.3000" /> 
</g>
<g style="fill:#6FCCDB; fill-opacity:1.0000; stroke:none;">
<circle cx="50.6495" cy="30.7750" r="0.3000" /> 
</g>
<g style="fill:#6FCCDB; fill-opacity:1.0000; stroke:none;">
<circle cx="76.3500" cy="32.2500" r="0.3000" /> 
</g>
<g style="fill:#6FCCDB; fill-opacity:1.0000; stroke:none;">
<circle cx="63.3000" cy="38.2000" r="0.3000" /> 
</g>
<g style="fill:#6FCCDB; fill-opacity:1.0000; stroke:none;">
<circle cx="66.3000" cy="32.6000" r="0.3000" /> 
</g>
<g style="fill:#6FCCDB; fill-opacity:1.0000; stroke:none;">
<circle cx="77.7500" cy="31.3000" r="0.3000" /> 
</g>
<g style="fill:#6FCCDB; fill-opacity:1.0000; stroke:none;">
<circle cx="70.1500" cy="38.4000" r="0.3000" /> 
</g>
<g style="fill:#6FCCDB; fill-opacity:1.0000; stroke:none;">
<circle cx="64.5000" cy="32.8000" r="0.3000" /> 
</g>
<g style="fill:#6FCCDB; fill-opacity:1.0000; stroke:none;">
<circle cx="54.5000" cy="37.3500" r="0.3000" /> 
</g>
<g style="fill:#6FCCDB; fill-opacity:1.0000; stroke:none;">
<circle cx="76.3500" cy="44.3000" r="0.3000" /> 
</g>
<g style="fill:#6FCCDB; fill-opacity:1.0000; stroke:none;">
<circle cx="53.5000" cy="33.0000" r="0.3000" /> 
</g>
<g style="fill:#6FCCDB; fill-opacity:1.0000; stroke:none;">
<circle cx="73.6000" cy="45.2500" r="0.3000" /> 
</g>
<g style="fill:#6FCCDB; fill-opacity:1.0000; stroke:none;">
<circle cx="54.0000" cy="41.0500" r="0.3000" /> 
</g>
<g style="fill:#6FCCDB; fill-opacity:1.0000; stroke:none;">
<circle cx="63.7000" cy="41.1000" r="0.3000" /> 
</g>
<g style="fill:#6FCCDB; fill-opacity:1.0000; stroke:none;">
<circle cx="73.9500" cy="37.0500" r="0.3000" /> 
</g>
<g style="fill:#6FCCDB; fill-opacity:1.0000; stroke:none;">
<circle cx="75.6000" cy="46.7000" r="0.3000" /> 
</g>
<g style="fill:#6FCCDB; fill-opacity:1.0000; stroke:none;">
<circle cx="77.0500" cy="32.2500" r="0.3000" /> 
</g>
<g style="fill:#6FCCDB; fill-opacity:1.0000; stroke:none;">
<circle cx="76.3500" cy="47.5000" r="0.3000" /> 
</g>
<g style="fill:#6FCCDB; fill-opacity:1.0000; stroke:none;">
<circle cx="76.3500" cy="33.5000" r="0.3000" /> 
</g>
<g style="fill:#6FCCDB; fill-opacity:1.0000; stroke:none;">
<circle cx="74.3000" cy="42.0500" r="0.3000" /> 
</g>
<g style="fill:#6FCCDB; fill-opacity:1.0000; stroke:none;">
<circle cx="66.3000" cy="30.0000" r="0.3000" /> 
</g>
<g style="fill:#6FCCDB; fill-opacity:1.0000; stroke:none;">
<circle cx="77.0500" cy="31.3000" r="0.3000" /> 
</g>
<g style="fill:#6FCCDB; fill-opacity:1.0000; stroke:none;">
<circle cx="76.3500" cy="45.3000" r="0.3000" /> 
</g>
<g style="fill:#6FCCDB; fill-opacity:1.0000; stroke:none;">
<circle cx="75.0000" cy="42.0500" r="0.3000" /> 
</g>
<g style="fill:#6FCCDB; fill-opacity:1.0000; stroke:none;">
<circle cx="77.7500" cy="32.2500" r="0.3000" /> 
</g>
<g style="fill:#6FCCDB; fill-opacity:1.0000; stroke:none;">
<circle cx="74.3000" cy="45.2500" r="0.3000" /> 
</g>
<g style="fill:#6FCCDB; fill-opacity:1.0000; stroke:none;">
<circle cx="65.1000" cy="46.7500" r="0.3000" /> 
</g>
<g style="fill:#6FCCDB; fill-opacity:1.0000; stroke:none;">
<circle cx="46.1000" cy="30.5500" r="0.3000" /> 
</g>
<g style="fill:#6FCCDB; fill-opacity:1.0000; stroke:none;">
<circle cx="76.8750" cy="37.0500" r="0.3000" /> 
</g>
<g style="fill:#6FCCDB; fill-opacity:1.0000; stroke:none;">
<circle cx="77.0500" cy="47.5000" r="0.3000" /> 
</g>
<g style="fill:#6FCCDB; fill-opacity:1.0000; stroke:none;">
<circle cx="77.7500" cy="30.0500" r="0.3000" /> 
</g>
<g style="fill:#6FCCDB; fill-opacity:1.0000; stroke:none;">
<circle cx="58.0000" cy="36.2000" r="0.3000" /> 
</g>
<g style="fill:#6FCCDB; fill-opacity:1.0000; stroke:none;">
<circle cx="70.8500" cy="33.3000" r="0.3000" /> 
</g>
<g style="fill:#6FCCDB; fill-opacity:1.0000; stroke:none;">
<circle cx="65.1000" cy="45.3500" r="0.3000" /> 
</g>
<g style="fill:#6FCCDB; fill-opacity:1.0000; stroke:none;">
<circle cx="64.4000" cy="41.1000" r="0.3000" /> 
</g>
<g style="fill:#6FCCDB; fill-opacity:1.0000; stroke:none;">
<circle cx="75.0000" cy="44.2500" r="0.3000" /> 
</g>
<g style="fill:#6FCCDB; fill-opacity:1.0000; stroke:none;">
<circle cx="65.1000" cy="46.0500" r="0.3000" /> 
</g>
<g style="fill:#6FCCDB; fill-opacity:1.0000; stroke:none;">
<circle cx="77.0500" cy="46.5000" r="0.3000" /> 
</g>
<g style="fill:#6FCCDB; fill-opacity:1.0000; stroke:none;">
<circle cx="74.2000" cy="30.4000" r="0.3000" /> 
</g>
<g style="fill:#6FCCDB; fill-opacity:1.0000; stroke:none;">
<circle cx="77.0500" cy="33.5000" r="0.3000" /> 
</g>
<g style="fill:#6FCCDB; fill-opacity:1.0000; stroke:none;">
<circle cx="74.3000" cy="44.2500" r="0.3000" /> 
</g>
<g style="fill:#6FCCDB; fill-opacity:1.0000; stroke:none;">
<circle cx="73.6000" cy="44.2500" r="0.3000" /> 
</g>
<g style="fill:#6FCCDB; fill-opacity:1.0000; stroke:none;">
<circle cx="52.9000" cy="35.4000" r="0.3000" /> 
</g>
<g style="fill:#6FCCDB; fill-opacity:1.0000; stroke:none;">
<circle cx="77.7500" cy="46.5000" r="0.3000" /> 
</g>
<g style="fill:#6FCCDB; fill-opacity:1.0000; stroke:none;">
<circle cx="75.0000" cy="45.2500" r="0.3000" /> 
</g>
<g style="fill:#6FCCDB; fill-opacity:1.0000; stroke:none;">
<circle cx="66.7000" cy="47.3000" r="0.3000" /> 
</g>
<g style="fill:#6FCCDB; fill-opacity:1.0000; stroke:none;">
<circle cx="73.6000" cy="42.0500" r="0.3000" /> 
</g>
<g style="fill:#6FCCDB; fill-opacity:1.0000; stroke:none;">
<circle cx="56.4826" cy="39.0290" r="0.3000" /> 
</g>
<g style="fill:#6FCCDB; fill-opacity:1.0000; stroke:none;">
<circle cx="52.9000" cy="41.8000" r="0.3000" /> 
</g>
<g style="fill:#6FCCDB; fill-opacity:1.0000; stroke:none;">
<circle cx="77.0500" cy="44.3000" r="0.3000" /> 
</g>
<g style="fill:#6FCCDB; fill-opacity:1.0000; stroke:none;">
<circle cx="65.1000" cy="41.1000" r="0.3000" /> 
</g>
<g style="fill:#6FCCDB; fill-opacity:1.0000; stroke:none;">
<circle cx="77.7500" cy="47.5000" r="0.3000" /> 
</g>
<g style="fill:#6FCCDB; fill-opacity:1.0000; stroke:none;">
<circle cx="76.3500" cy="46.5000" r="0.3000" /> 
</g>
<g style="fill:#6FCCDB; fill-opacity:1.0000; stroke:none;">
<circle cx="61.0000" cy="31.1000" r="0.3000" /> 
</g>
<g style="fill:#6FCCDB; fill-opacity:1.0000; stroke:none;">
<circle cx="76.3500" cy="31.3000" r="0.3000" /> 
</g>
<g style="fill:#6FCCDB; fill-opacity:1.0000; stroke:none;">
<circle cx="50.7000" cy="46.2000" r="0.3000" /> 
</g>
<g style="fill:#6FCCDB; fill-opacity:1.0000; stroke:none;">
<circle cx="77.0500" cy="45.3000" r="0.3000" /> 
</g>
<g style="fill:#6FCCDB; fill-opacity:1.0000; stroke:none;">
<circle cx="77.7500" cy="44.3000" r="0.3000" /> 
</g>
<g style="fill:#6FCCDB; fill-opacity:1.0000; stroke:none;">
<circle cx="77.7500" cy="45.3000" r="0.3000" /> 
</g>
<g style="fill:#6FCCDB; fill-opacity:1.0000; stroke:none;">
<circle cx="77.0500" cy="30.0500" r="0.3000" /> 
</g>
<g style="fill:#6FCCDB; fill-opacity:1.0000; stroke:none;">
<circle cx="62.3000" cy="35.4000" r="0.3000" /> 
</g>
<g style="fill:#6FCCDB; fill-opacity:1.0000; stroke:none;">
<circle cx="46.1000" cy="46.5500" r="0.3000" /> 
</g>
<g style="fill:#6FCCDB; fill-opacity:1.0000; stroke:none;">
<circle cx="77.7500" cy="33.5000" r="0.3000" /> 
</g>
<g style="fill:#6FCCDB; fill-opacity:1.0000; stroke:none;">
<circle cx="74.2000" cy="32.5000" r="0.3000" /> 
</g>
<g style="fill:#6FCCDB; fill-opacity:1.0000; stroke:none;">
<circle cx="66.4750" cy="36.6750" r="0.3000" /> 
</g>
<g style="fill:#6FCCDB; fill-opacity:1.0000; stroke:none;">
<circle cx="52.1000" cy="32.6000" r="0.3000" /> 
</g>
<g style="fill:#6FCCDB; fill-opacity:1.0000; stroke:none;">
<circle cx="52.1000" cy="44.5000" r="0.3000" /> 
</g>
<g style="fill:#6FCCDB; fill-opacity:1.0000; stroke:none;">
<circle cx="67.9156" cy="30.7890" r="0.3000" /> 
</g>
<g style="fill:#6FCCDB; fill-opacity:1.0000; stroke:none;">
<circle cx="62.5000" cy="30.8000" r="0.3000" /> 
</g>
<g style="fill:#6FCCDB; fill-opacity:1.0000; stroke:none;">
<circle cx="77.4750" cy="35.6750" r="0.3000" /> 
</g>
<g style="fill:#6FCCDB; fill-opacity:1.0000; stroke:none;">
<circle cx="66.8500" cy="40.8000" r="0.3000" /> 
</g>
<g style="fill:#6FCCDB; fill-opacity:1.0000; stroke:none;">
<circle cx="70.8500" cy="34.7800" r="0.3000" /> 
</g>
<g style="fill:#6FCCDB; fill-opacity:1.0000; stroke:none;">
<circle cx="71.8625" cy="42.0375" r="0.3000" /> 
</g>
<g style="fill:#6FCCDB; fill-opacity:1.0000; stroke:none;">
<circle cx="49.0000" cy="44.9000" r="0.3000" /> 
</g>
<g style="fill:#6FCCDB; fill-opacity:1.0000; stroke:none;">
<circle cx="73.4500" cy="35.7000" r="0.3000" /> 
</g>
<g style="fill:#6FCCDB; fill-opacity:1.0000; stroke:none;">
<circle cx="72.2500" cy="33.0500" r="0.3000" /> 
</g>
<g style="fill:#6FCCDB; fill-opacity:1.0000; stroke:none;">
<circle cx="51.8500" cy="30.3000" r="0.3000" /> 
</g>
<g style="fill:#6FCCDB; fill-opacity:1.0000; stroke:none;">
<circle cx="61.4500" cy="38.9000" r="0.3000" /> 
</g>
<g style="fill:#6FCCDB; fill-opacity:1.0000; stroke:none;">
<circle cx="65.6528" cy="38.4836" r="0.3000" /> 
</g>
<g style="fill:#6FCCDB; fill-opacity:1.0000; stroke:none;">
<circle cx="66.4500" cy="38.5500" r="0.3000" /> 
</g>
<g style="fill:#6FCCDB; fill-opacity:1.0000; stroke:none;">
<circle cx="61.2500" cy="37.3000" r="0.3000" /> 
</g>
<g style="fill:#6FCCDB; fill-opacity:1.0000; stroke:none;">
<circle cx="69.9711" cy="42.5859" r="0.3000" /> 
</g>
<g style="fill:#6FCCDB; fill-opacity:1.0000; stroke:none;">
<circle cx="62.3500" cy="44.3000" r="0.3000" /> 
</g>
<g style="fill:#6FCCDB; fill-opacity:1.0000; stroke:none;">
<circle cx="69.5000" cy="33.3828" r="0.3000" /> 
</g>
<g style="fill:#6FCCDB; fill-opacity:1.0000; stroke:none;">
<circle cx="70.6000" cy="30.9679" r="0.3000" /> 
</g>
<g style="fill:#6FCCDB; fill-opacity:1.0000; stroke:none;">
<circle cx="69.8465" cy="30.6993" r="0.3000" /> 
</g>
<g style="fill:#6FCCDB; fill-opacity:1.0000; stroke:none;">
<circle cx="71.6500" cy="34.3000" r="0.3000" /> 
</g>
<g style="fill:none; 
stroke:#6FCCDB; stroke-width:0.2000; stroke-opacity:1; 
stroke-linecap:round; stroke-linejoin:round;">
<path d="M50.1000 39.8000
L67.3000 39.8000
" />
<path d="M73.4500 36.7001
L73.4500 35.7000
" />
<path d="M67.3000 39.8000
L69.9000 37.2000
" />
<path d="M49.0000 44.9000
L49.0000 40.9000
" />
<path d="M72.9501 37.2000
L73.4500 36.7001
" />
<path d="M49.0000 40.9000
L50.1000 39.8000
" />
<path d="M69.9000 37.2000
L72.9501 37.2000
" />
<path d="M71.2000 29.4000
L52.7500 29.4000
" />
<path d="M72.2500 30.4500
L71.2000 29.4000
" />
<path d="M52.7500 29.4000
L51.8500 30.3000
" />
<path d="M72.2500 33.0500
L72.2500 30.4500
" />
<path d="M65.2363 38.9000
L65.6528 38.4836
" />
<path d="M61.4500 38.9000
L65.2363 38.9000
" />
<path d="M61.2500 37.3000
L65.3191 37.3000
" />
<path d="M65.3191 37.3000
L66.4500 38.4309
" />
<path d="M66.4500 38.4309
L66.4500 38.5500
" />
<path d="M69.5000 33.3828
L69.5000 32.0679
" />
<path d="M69.5000 32.0679
L70.6000 30.9679
" />
<path style="fill:#6FCCDB; fill-opacity:1.0000; stroke:none;fill-rule:evenodd;"
d="M 51.9679,29.1202
52.0137,29.1730
52.0236,29.2421
51.9946,29.3057
51.9886,29.3122
51.8726,29.4282
51.8353,29.4654
51.7740,29.4989
51.7719,29.4994
51.6165,29.5303
51.6165,29.5303
51.4708,29.5906
51.4708,29.5906
51.3397,29.6782
51.3397,29.6782
51.2282,29.7897
51.2282,29.7897
51.1406,29.9208
51.1406,29.9208
51.1205,29.9694
51.0766,30.0238
51.0103,30.0459
50.9585,30.0365
50.9118,30.0172
50.8830,30.0053
50.8830,30.0053
50.8830,30.0053
50.7283,29.9745
50.7283,29.9745
50.5706,29.9745
50.5706,29.9745
50.4160,30.0053
50.4160,30.0053
50.2703,30.0656
50.2703,30.0656
50.1392,30.1532
50.1392,30.1532
50.0277,30.2647
50.0277,30.2647
49.9401,30.3958
49.9401,30.3958
49.8797,30.5415
49.8797,30.5415
49.8490,30.6962
49.8490,30.8538
49.8797,31.0085
49.8797,31.0085
49.9401,31.1542
49.9401,31.1542
50.0277,31.2853
50.0277,31.2853
50.1392,31.3968
50.1392,31.3968
50.2703,31.4844
50.2703,31.4844
50.4160,31.5447
50.4160,31.5447
50.5706,31.5755
50.5706,31.5755
50.5706,31.5755
50.7283,31.5755
50.7283,31.5755
50.8830,31.5447
51.0287,31.4844
51.1598,31.3968
51.2713,31.2853
51.3589,31.1542
51.3790,31.1056
51.4228,31.0512
51.4891,31.0291
51.5410,31.0385
51.6087,31.0665
51.6165,31.0697
51.7712,31.1005
51.7712,31.1005
51.7712,31.1005
51.9288,31.1005
51.9288,31.1005
52.0835,31.0697
52.2008,31.0212
60.1995,31.0212
60.1995,31.1788
60.2303,31.3335
60.2303,31.3335
60.2906,31.4792
60.2906,31.4792
60.3782,31.6103
60.3782,31.6103
60.4897,31.7218
60.4897,31.7218
60.6208,31.8094
60.6208,31.8094
60.7041,31.8439
60.7665,31.8697
60.9212,31.9005
60.9212,31.9005
60.9212,31.9005
61.0788,31.9005
61.0788,31.9005
61.2335,31.8697
61.3792,31.8094
61.5103,31.7218
61.6218,31.6103
61.7094,31.4792
61.7098,31.4782
61.7510,31.3788
61.7697,31.3335
61.8005,31.1788
61.8005,31.0212
61.8005,31.0212
61.8005,31.0212
61.7829,30.9328
61.7697,30.8665
61.7424,30.8005
61.7094,30.7208
61.7094,30.7208
61.6218,30.5897
61.6218,30.5897
61.5103,30.4782
61.5103,30.4782
61.3792,30.3906
61.3792,30.3906
61.2335,30.3303
61.2335,30.3303
61.0788,30.2995
61.0788,30.2995
60.9212,30.2995
60.9212,30.2995
60.7665,30.3303
60.7665,30.3303
60.6208,30.3906
60.6208,30.3906
60.4897,30.4782
60.4897,30.4782
60.3782,30.5897
60.3782,30.5897
60.2906,30.7208
60.2906,30.7208
60.2303,30.8665
60.2303,30.8665
60.1995,31.0212
52.2008,31.0212
52.2292,31.0094
52.3603,30.9218
52.4718,30.8103
52.5594,30.6792
52.6197,30.5335
52.6405,30.4292
52.6506,30.3781
52.6830,30.3162
52.6845,30.3147
52.9624,30.0368
53.0237,30.0033
53.0501,30.0005
65.3822,30.0005
65.4492,30.0202
65.4949,30.0730
65.5038,30.1003
65.5303,30.2335
65.5303,30.2335
65.5906,30.3792
65.5906,30.3792
65.6782,30.5103
65.6782,30.5103
65.7897,30.6218
65.7897,30.6218
65.9208,30.7094
65.9208,30.7094
65.9986,30.7416
66.0665,30.7697
66.2212,30.8005
66.2212,30.8005
66.2212,30.8005
66.3788,30.8005
66.3788,30.8005
66.5335,30.7697
66.6516,30.7208
66.6792,30.7094
66.6792,30.7094
66.6792,30.7094
66.8103,30.6218
66.9218,30.5103
67.0094,30.3792
67.0128,30.3709
67.0297,30.3303
67.0697,30.2335
67.0822,30.1708
67.0962,30.1003
67.1286,30.0384
67.1893,30.0038
67.2178,30.0005
69.1187,30.0005
69.1857,30.0202
69.2314,30.0730
69.2414,30.1421
69.2218,30.1934
69.1371,30.3201
69.1371,30.3201
69.0767,30.4658
69.0767,30.4658
69.0460,30.6204
69.0460,30.7781
69.0767,30.9328
69.0767,30.9328
69.1371,31.0785
69.1371,31.0785
69.2247,31.2096
69.2247,31.2096
69.2792,31.2641
69.2836,31.2721
69.2908,31.2775
69.3000,31.3022
69.3127,31.3254
69.3121,31.3345
69.3152,31.3429
69.3096,31.3688
69.3077,31.3951
69.3019,31.4042
69.3004,31.4112
69.2792,31.4395
69.1313,31.5874
69.1313,31.5874
69.1313,31.5874
69.0195,31.6992
69.0195,31.6992
68.9899,31.7505
68.9899,31.7505
68.9404,31.8361
68.9311,31.8708
68.8995,31.9889
68.8995,31.9889
68.8995,32.1570
68.8995,32.1570
68.8995,32.8030
68.8798,32.8701
68.8786,32.8719
68.7906,33.0036
68.7906,33.0036
68.7303,33.1493
68.7303,33.1493
68.6995,33.3040
68.6995,33.4617
68.7303,33.6163
68.7303,33.6163
68.7906,33.7620
68.7906,33.7620
68.8782,33.8931
68.8782,33.8931
68.9897,34.0046
68.9897,34.0046
69.1208,34.0922
69.1208,34.0922
69.2665,34.1525
69.2665,34.1526
69.4118,34.1815
69.4212,34.1833
69.4212,34.1833
69.4212,34.1833
69.5788,34.1833
69.5788,34.1833
69.7335,34.1526
69.8592,34.1005
69.8792,34.0922
69.8792,34.0922
69.8792,34.0922
70.0103,34.0046
70.0267,33.9882
70.1261,33.8888
70.1274,33.8901
70.1780,33.8556
70.2479,33.8537
70.3038,33.8859
70.3397,33.9218
70.3397,33.9218
70.4708,34.0094
70.4708,34.0094
70.6087,34.0665
70.6165,34.0697
70.7270,34.0917
70.7497,34.0962
70.8116,34.1286
70.8462,34.1893
70.8495,34.2178
70.8495,34.3788
70.8803,34.5335
70.8803,34.5335
70.9406,34.6792
70.9406,34.6792
71.0282,34.8103
71.0282,34.8103
71.1397,34.9218
71.1397,34.9218
71.2708,35.0094
71.2708,35.0094
71.4165,35.0697
71.4165,35.0697
71.5712,35.1005
71.5712,35.1005
71.5712,35.1005
71.7288,35.1005
71.7288,35.1005
71.8835,35.0697
72.0016,35.0208
72.0292,35.0094
72.0292,35.0094
72.0292,35.0094
72.1603,34.9218
72.2718,34.8103
72.3594,34.6792
72.4197,34.5335
72.4505,34.3788
72.4505,34.2212
72.4505,34.2212
72.4505,34.2212
72.4442,34.1893
72.4197,34.0665
72.3880,33.9898
72.3805,33.9204
72.4118,33.8579
72.4719,33.8222
72.4783,33.8208
72.4835,33.8197
72.6292,33.7594
72.7603,33.6718
72.8718,33.5603
72.9594,33.4292
72.9627,33.4212
72.9801,33.3792
73.0197,33.2835
73.0505,33.1288
73.0505,32.9712
73.0505,32.9712
73.0505,32.9712
73.0406,32.9212
73.0197,32.8165
73.0142,32.8030
72.9594,32.6708
72.9594,32.6708
72.8714,32.5391
72.8505,32.4724
72.8505,32.4702
72.8505,30.3709
72.8476,30.3602
72.8476,30.3602
72.8441,30.3472
72.8441,30.3472
72.8372,30.3212
73.3995,30.3212
73.3995,30.4788
73.4303,30.6335
73.4303,30.6335
73.4906,30.7792
73.4906,30.7792
73.5782,30.9103
73.5782,30.9103
73.6897,31.0218
73.6897,31.0218
73.8208,31.1094
73.8208,31.1094
73.9665,31.1697
73.9665,31.1697
74.1212,31.2005
74.1212,31.2005
74.1212,31.2005
74.2788,31.2005
74.2788,31.2005
74.4335,31.1697
74.5792,31.1094
74.7103,31.0218
74.8218,30.9103
74.9094,30.7792
74.9697,30.6335
75.0005,30.4788
75.0005,30.3212
75.0005,30.3212
75.0005,30.3212
74.9962,30.2995
74.9697,30.1665
74.9642,30.1532
74.9094,30.0208
74.9094,30.0208
74.8218,29.8897
74.8218,29.8897
74.7103,29.7782
74.7103,29.7782
74.5792,29.6906
74.5792,29.6906
74.4335,29.6303
74.4335,29.6303
74.2788,29.5995
74.2788,29.5995
74.1212,29.5995
74.1212,29.5995
73.9665,29.6303
73.9665,29.6303
73.8208,29.6906
73.8208,29.6906
73.6897,29.7782
73.6897,29.7782
73.5782,29.8897
73.5782,29.8897
73.4906,30.0208
73.4906,30.0208
73.4303,30.1665
73.4303,30.1665
73.3995,30.3212
72.8372,30.3212
72.8358,30.3162
72.8096,30.2182
72.7720,30.1532
72.7305,30.0813
72.6187,29.9695
72.6187,29.9695
72.6144,29.9651
72.6144,29.9651
71.9614,29.3122
71.9279,29.2509
71.9329,29.1812
71.9748,29.1252
72.0403,29.1008
72.0491,29.1005
75.9271,29.1005
75.9941,29.1202
76.0399,29.1730
76.0498,29.2421
76.0208,29.3057
75.9745,29.3391
75.9708,29.3406
75.9708,29.3406
75.8397,29.4282
75.8397,29.4282
75.7282,29.5397
75.7282,29.5397
75.6406,29.6708
75.6406,29.6708
75.5803,29.8165
75.5803,29.8165
75.5495,29.9712
75.5495,30.1288
75.5803,30.2835
75.5803,30.2835
75.6406,30.4292
75.6406,30.4292
75.7282,30.5603
75.7282,30.5603
75.7552,30.5873
75.7887,30.6486
75.7837,30.7183
75.7552,30.7627
75.7282,30.7897
75.7282,30.7897
75.6406,30.9208
75.6406,30.9208
75.5803,31.0665
75.5803,31.0665
75.5495,31.2212
75.5495,31.3788
75.5803,31.5335
75.5803,31.5335
75.6406,31.6792
75.6406,31.6792
75.6406,31.6792
75.6406,31.6792
75.6406,31.6792
75.6586,31.7061
75.6795,31.7728
75.6610,31.8402
75.6586,31.8439
75.6406,31.8708
75.6406,31.8708
75.5803,32.0165
75.5803,32.0165
75.5495,32.1712
75.5495,32.3288
75.5803,32.4835
75.5803,32.4835
75.6406,32.6292
75.6406,32.6292
75.7282,32.7603
75.7282,32.7603
75.7552,32.7873
75.7887,32.8486
75.7837,32.9183
75.7552,32.9627
75.7282,32.9897
75.7282,32.9897
75.6406,33.1208
75.6406,33.1208
75.5803,33.2665
75.5803,33.2665
75.5495,33.4212
75.5495,33.5788
75.5803,33.7335
75.5803,33.7335
75.6406,33.8792
75.6406,33.8792
75.7282,34.0103
75.7282,34.0103
75.8397,34.1218
75.8397,34.1218
75.9708,34.2094
75.9708,34.2094
76.1165,34.2697
76.1165,34.2697
76.2712,34.3005
76.2712,34.3005
76.2712,34.3005
76.4288,34.3005
76.4288,34.3005
76.5835,34.2697
76.6525,34.2411
76.7220,34.2337
76.7474,34.2411
76.8165,34.2697
76.9712,34.3005
76.9712,34.3005
76.9712,34.3005
77.1288,34.3005
77.1288,34.3005
77.2835,34.2697
77.3525,34.2411
77.4220,34.2337
77.4474,34.2411
77.5165,34.2697
77.6712,34.3005
77.6712,34.3005
77.6712,34.3005
77.8288,34.3005
77.8288,34.3005
77.9835,34.2697
78.1008,34.2212
78.1292,34.2094
78.1292,34.2094
78.1292,34.2094
78.2603,34.1218
78.3718,34.0103
78.4594,33.8792
78.5197,33.7335
78.5505,33.5788
78.5505,33.4212
78.5505,33.4212
78.5505,33.4212
78.5403,33.3697
78.5197,33.2665
78.4836,33.1792
78.4594,33.1208
78.4594,33.1208
78.3718,32.9897
78.3718,32.9897
78.3448,32.9627
78.3113,32.9014
78.3163,32.8317
78.3448,32.7873
78.3718,32.7603
78.3718,32.7603
78.4594,32.6292
78.4629,32.6208
78.4854,32.5665
78.5197,32.4835
78.5505,32.3288
78.5505,32.1712
78.5505,32.1712
78.5505,32.1712
78.5457,32.1470
78.5197,32.0165
78.5039,31.9782
78.4594,31.8708
78.4594,31.8708
78.4414,31.8439
78.4205,31.7772
78.4390,31.7098
78.4414,31.7061
78.4594,31.6792
78.4594,31.6792
78.4594,31.6792
78.5197,31.5335
78.5505,31.3788
78.5505,31.2212
78.5505,31.2212
78.5505,31.2212
78.5464,31.2005
78.5197,31.0665
78.5115,31.0467
78.4594,30.9208
78.4594,30.9208
78.3718,30.7897
78.3718,30.7897
78.3448,30.7627
78.3113,30.7014
78.3163,30.6317
78.3448,30.5873
78.3718,30.5603
78.3718,30.5603
78.4594,30.4292
78.5197,30.2835
78.5505,30.1288
78.5505,29.9712
78.5505,29.9712
78.5505,29.9712
78.5245,29.8406
78.5197,29.8165
78.5197,29.8165
78.4594,29.6708
78.4594,29.6708
78.3718,29.5397
78.3718,29.5397
78.2603,29.4282
78.2603,29.4282
78.1292,29.3406
78.1292,29.3406
78.1255,29.3391
78.0710,29.2952
78.0490,29.2289
78.0663,29.1612
78.1174,29.1136
78.1729,29.1005
78.9760,29.1005
79.0430,29.1202
79.0888,29.1730
79.1000,29.2245
79.1000,43.9755
79.0803,44.0425
79.0275,44.0883
78.9760,44.0995
78.6163,44.0995
78.5492,44.0798
78.5035,44.0270
78.5017,44.0230
78.4594,43.9208
78.4594,43.9208
78.3718,43.7897
78.3718,43.7897
78.2603,43.6782
78.2603,43.6782
78.1292,43.5906
78.1292,43.5906
77.9835,43.5303
77.9835,43.5303
77.8288,43.4995
77.8288,43.4995
77.6712,43.4995
77.6712,43.4995
77.5165,43.5303
77.5165,43.5303
77.5165,43.5303
77.5165,43.5303
77.4474,43.5589
77.3780,43.5663
77.3526,43.5589
77.2835,43.5303
77.2835,43.5303
77.2835,43.5303
77.1288,43.4995
77.1288,43.4995
76.9712,43.4995
76.9712,43.4995
76.8165,43.5303
76.8165,43.5303
76.8165,43.5303
76.8165,43.5303
76.7474,43.5589
76.6780,43.5663
76.6526,43.5589
76.5835,43.5303
76.5835,43.5303
76.5835,43.5303
76.4288,43.4995
76.4288,43.4995
76.2712,43.4995
76.2712,43.4995
76.1165,43.5303
76.1165,43.5303
75.9708,43.5906
75.9708,43.5906
75.8397,43.6782
75.8397,43.6782
75.7877,43.7302
75.7264,43.7637
75.6567,43.7587
75.6123,43.7302
75.5103,43.6282
75.5103,43.6282
75.3792,43.5406
75.3792,43.5406
75.2335,43.4803
75.2335,43.4803
75.0788,43.4495
75.0788,43.4495
74.9212,43.4495
74.9212,43.4495
74.7665,43.4803
74.7665,43.4803
74.7665,43.4803
74.7665,43.4803
74.6974,43.5089
74.6280,43.5163
74.6026,43.5089
74.5335,43.4803
74.5335,43.4803
74.5335,43.4803
74.3788,43.4495
74.3788,43.4495
74.2212,43.4495
74.2212,43.4495
74.0665,43.4803
74.0665,43.4803
74.0665,43.4803
74.0665,43.4803
73.9974,43.5089
73.9280,43.5163
73.9026,43.5089
73.8335,43.4803
73.8335,43.4803
73.8335,43.4803
73.6788,43.4495
73.6788,43.4495
73.5212,43.4495
73.5212,43.4495
73.3665,43.4803
73.3665,43.4803
73.2208,43.5406
73.2208,43.5406
73.0897,43.6282
73.0897,43.6282
72.9782,43.7397
72.9782,43.7397
72.8906,43.8708
72.8906,43.8708
72.8303,44.0165
72.8303,44.0165
72.7995,44.1712
72.7995,44.3288
72.8303,44.4835
72.8303,44.4835
72.8906,44.6292
72.8906,44.6292
72.9253,44.6811
72.9462,44.7478
72.9277,44.8152
72.9253,44.8189
72.8906,44.8708
72.8906,44.8708
72.8303,45.0165
72.8303,45.0165
72.7995,45.1712
72.7995,45.3288
72.8303,45.4835
72.8303,45.4835
72.8906,45.6292
72.8906,45.6292
72.9782,45.7603
72.9782,45.7603
73.0897,45.8718
73.0897,45.8718
73.2208,45.9594
73.2208,45.9594
73.3503,46.0130
73.3665,46.0197
73.4764,46.0416
73.5212,46.0505
73.5212,46.0505
73.5212,46.0505
73.6788,46.0505
73.6788,46.0505
73.8335,46.0197
73.9025,45.9911
73.9720,45.9837
73.9974,45.9911
74.0665,46.0197
74.1764,46.0416
74.2212,46.0505
74.2212,46.0505
74.2212,46.0505
74.3788,46.0505
74.3788,46.0505
74.5335,46.0197
74.6025,45.9911
74.6263,45.9886
74.6492,45.9817
74.6638,45.9846
74.6720,45.9837
74.6842,45.9865
74.6909,45.9884
74.7665,46.0197
74.8766,46.0416
74.8816,46.0431
74.9069,46.0591
74.9335,46.0730
74.9361,46.0776
74.9406,46.0804
74.9532,46.1077
74.9681,46.1337
74.9678,46.1390
74.9700,46.1438
74.9660,46.1735
74.9644,46.2035
74.9609,46.2104
74.9605,46.2130
74.9582,46.2157
74.9505,46.2312
74.8906,46.3208
74.8906,46.3208
74.8303,46.4665
74.8303,46.4665
74.7995,46.6212
74.7995,46.7788
74.8303,46.9335
74.8303,46.9335
74.8906,47.0792
74.8906,47.0792
74.9782,47.2103
74.9782,47.2103
75.0897,47.3218
75.0897,47.3218
75.2208,47.4094
75.2208,47.4094
75.3579,47.4662
75.3665,47.4697
75.4532,47.4870
75.5151,47.5194
75.5497,47.5801
75.5506,47.5844
75.5803,47.7335
75.5803,47.7335
75.6406,47.8792
75.6406,47.8792
75.6589,47.9066
75.6798,47.9733
75.6613,48.0407
75.6093,48.0874
75.5558,48.0995
67.3319,48.0995
67.2649,48.0798
67.2191,48.0270
67.2092,47.9579
67.2382,47.8943
67.2443,47.8878
67.3218,47.8103
67.3218,47.8103
67.4094,47.6792
67.4697,47.5335
67.5005,47.3788
67.5005,47.2212
67.5005,47.2212
67.5005,47.2212
67.4822,47.1292
67.4697,47.0665
67.4488,47.0159
67.4094,46.9208
67.4094,46.9208
67.3218,46.7897
67.3218,46.7897
67.2103,46.6782
67.2103,46.6782
67.0792,46.5906
67.0792,46.5906
66.9335,46.5303
66.9335,46.5303
66.7788,46.4995
66.7788,46.4995
66.6212,46.4995
66.6212,46.4995
66.4665,46.5303
66.4665,46.5303
66.3208,46.5906
66.3208,46.5906
66.1897,46.6782
66.1897,46.6782
66.1122,46.7557
66.0509,46.7892
65.9812,46.7842
65.9252,46.7424
65.9008,46.6769
65.9007,46.6729
65.9005,46.6712
65.9005,46.6712
65.8697,46.5165
65.8411,46.4474
65.8337,46.3780
65.8411,46.3526
65.8697,46.2835
65.9005,46.1288
65.9005,45.9712
65.9005,45.9712
65.9005,45.9712
65.8862,45.8995
65.8697,45.8165
65.8411,45.7475
65.8337,45.6780
65.8411,45.6526
65.8697,45.5835
65.9005,45.4288
65.9005,45.2712
65.9005,45.2712
65.9005,45.2712
65.8840,45.1881
65.8697,45.1165
65.8697,45.1165
65.8094,44.9708
65.8094,44.9708
65.7218,44.8397
65.7218,44.8397
65.6103,44.7282
65.6103,44.7282
65.4792,44.6406
65.4792,44.6406
65.3335,44.5803
65.3335,44.5803
65.1788,44.5495
65.1788,44.5495
65.0212,44.5495
65.0212,44.5495
64.8665,44.5803
64.8665,44.5803
64.7208,44.6406
64.7208,44.6406
64.5897,44.7282
64.5897,44.7282
64.4782,44.8397
64.4782,44.8397
64.3906,44.9708
64.3906,44.9708
64.3303,45.1165
64.3303,45.1165
64.2995,45.2712
64.2995,45.4288
64.3303,45.5835
64.3303,45.5835
64.3303,45.5835
64.3589,45.6525
64.3589,45.6525
64.3614,45.6758
64.3683,45.6982
64.3654,45.7133
64.3663,45.7220
64.3638,45.7332
64.3618,45.7405
64.3303,45.8165
64.3041,45.9478
64.3029,45.9523
64.2868,45.9782
64.2727,46.0052
64.2685,46.0076
64.2660,46.0116
64.2384,46.0247
64.2119,46.0398
64.2072,46.0395
64.2029,46.0416
64.1726,46.0377
64.1422,46.0361
64.1383,46.0333
64.1336,46.0327
64.1102,46.0130
64.0855,45.9952
64.0814,45.9888
64.0801,45.9877
64.0795,45.9857
64.0729,45.9754
64.0354,45.9017
64.0051,45.8422
64.0050,45.8422
64.0050,45.8422
63.8801,45.6702
63.7298,45.5199
63.5578,45.3950
63.3684,45.2984
63.3684,45.2984
63.3684,45.2984
63.1662,45.2328
63.1662,45.2328
63.1662,45.2328
63.0050,45.2072
62.9563,45.1995
62.8534,45.1995
62.7864,45.1798
62.7406,45.1270
62.7307,45.0579
62.7597,44.9943
62.7845,44.9724
62.8140,44.9527
62.8603,44.9218
62.9718,44.8103
63.0594,44.6792
63.1197,44.5335
63.1505,44.3788
63.1505,44.2212
63.1505,44.2212
63.1505,44.2212
63.1268,44.1022
63.1197,44.0665
63.1017,44.0230
63.0594,43.9208
63.0594,43.9208
62.9718,43.7897
62.9718,43.7897
62.8603,43.6782
62.8603,43.6782
62.7292,43.5906
62.7292,43.5906
62.5835,43.5303
62.5835,43.5303
62.4288,43.4995
62.4288,43.4995
62.2712,43.4995
62.2712,43.4995
62.1165,43.5303
62.1165,43.5303
61.9708,43.5906
61.9708,43.5906
61.8397,43.6782
61.8397,43.6782
61.7282,43.7897
61.7282,43.7897
61.6406,43.9208
61.6406,43.9208
61.5803,44.0665
61.5803,44.0665
61.5495,44.2212
61.5495,44.3788
61.5803,44.5335
61.5803,44.5335
61.6406,44.6792
61.6406,44.6792
61.7282,44.8103
61.7282,44.8103
61.8397,44.9218
61.8397,44.9218
61.9708,45.0094
61.9708,45.0094
62.0878,45.0579
62.1165,45.0697
62.2433,45.0950
62.3052,45.1273
62.3398,45.1881
62.3361,45.2578
62.2952,45.3145
62.2754,45.3271
62.1422,45.3949
62.1422,45.3949
61.9702,45.5199
61.8199,45.6702
61.6949,45.8422
61.6905,45.8509
61.6425,45.9017
61.5747,45.9185
61.5086,45.8960
61.4695,45.8509
61.4650,45.8422
61.3401,45.6702
61.1898,45.5199
61.0178,45.3950
60.8284,45.2984
60.8284,45.2984
60.8284,45.2984
60.6262,45.2328
60.6262,45.2328
60.6262,45.2328
60.4650,45.2072
60.4163,45.1995
60.2037,45.1995
60.1550,45.2072
59.9938,45.2328
59.7916,45.2984
59.6022,45.3950
59.4302,45.5199
59.2799,45.6702
59.1549,45.8422
59.1505,45.8509
59.1025,45.9017
59.0347,45.9185
58.9686,45.8960
58.9295,45.8509
58.9250,45.8422
58.8001,45.6702
58.6498,45.5199
58.4778,45.3950
58.2884,45.2984
58.2884,45.2984
58.2884,45.2984
58.0862,45.2328
58.0862,45.2328
58.0862,45.2328
57.9250,45.2072
57.8763,45.1995
57.6637,45.1995
57.6150,45.2072
57.4538,45.2328
57.2516,45.2984
57.0622,45.3950
56.8902,45.5199
56.7763,45.6338
56.7150,45.6673
56.6453,45.6623
56.5893,45.6204
56.5724,45.5895
56.5234,45.4579
56.5234,45.4579
56.4372,45.3428
56.4372,45.3428
56.3221,45.2566
56.3221,45.2566
56.1874,45.2064
56.1874,45.2064
56.1278,45.2000
55.4800,45.2000
55.4800,46.1170
55.4230,46.0841
55.2958,46.0500
55.1642,46.0500
55.0370,46.0841
54.9800,46.1170
54.9800,45.2000
54.3322,45.2000
54.2726,45.2064
54.2726,45.2064
54.1379,45.2566
54.1379,45.2566
54.0228,45.3428
54.0228,45.3428
53.9366,45.4579
53.9366,45.4579
53.8864,45.5926
53.8864,45.5926
53.8800,45.6522
53.8800,46.3000
54.7970,46.3000
54.7641,46.3570
54.7300,46.4842
54.7300,46.6158
54.7641,46.7430
54.7970,46.8000
53.8800,46.8000
53.8800,47.4478
53.8864,47.5074
53.8864,47.5074
53.9366,47.6421
53.9366,47.6421
54.0228,47.7572
54.0228,47.7572
54.1379,47.8434
54.1379,47.8434
54.1807,47.8593
54.2366,47.9012
54.2611,47.9667
54.2462,48.0349
54.1968,48.0843
54.1374,48.0995
44.5245,48.0995
44.4575,48.0798
44.4117,48.0270
44.4005,47.9755
44.4005,46.4712
45.2995,46.4712
45.2995,46.6288
45.3303,46.7835
45.3303,46.7835
45.3906,46.9292
45.3906,46.9292
45.4782,47.0603
45.4782,47.0603
45.5897,47.1718
45.5897,47.1718
45.7208,47.2594
45.7208,47.2594
45.8373,47.3076
45.8665,47.3197
46.0212,47.3505
46.0212,47.3505
46.0212,47.3505
46.1788,47.3505
46.1788,47.3505
46.3335,47.3197
46.4620,47.2665
46.4792,47.2594
46.4792,47.2594
46.4792,47.2594
46.6103,47.1718
46.7218,47.0603
46.8094,46.9292
46.8129,46.9208
46.8231,46.8962
46.8697,46.7835
46.9005,46.6288
46.9005,46.4712
46.9005,46.4712
46.9005,46.4712
46.8950,46.4437
46.8697,46.3165
46.8541,46.2788
46.8094,46.1708
46.7762,46.1212
49.8995,46.1212
49.8995,46.2788
49.9303,46.4335
49.9303,46.4335
49.9906,46.5792
49.9906,46.5792
50.0782,46.7103
50.0782,46.7103
50.1897,46.8218
50.1897,46.8218
50.3208,46.9094
50.3208,46.9094
50.4349,46.9566
50.4665,46.9697
50.6186,47.0000
50.6212,47.0005
50.6212,47.0005
50.6212,47.0005
50.7788,47.0005
50.7788,47.0005
50.9335,46.9697
51.0516,46.9208
51.0792,46.9094
51.0792,46.9094
51.0792,46.9094
51.2103,46.8218
51.3218,46.7103
51.4094,46.5792
51.4697,46.4335
51.5005,46.2788
51.5005,46.1212
51.5005,46.1212
51.5005,46.1212
51.4830,46.0333
51.4697,45.9665
51.4481,45.9143
51.4094,45.8208
51.4094,45.8208
51.3405,45.7177
51.3218,45.6897
51.2103,45.5782
51.2103,45.5782
51.0792,45.4906
51.0792,45.4906
50.9335,45.4303
50.9335,45.4303
50.7788,45.3995
50.7788,45.3995
50.6212,45.3995
50.6212,45.3995
50.4665,45.4303
50.4665,45.4303
50.3208,45.4906
50.3208,45.4906
50.1897,45.5782
50.1897,45.5782
50.0782,45.6897
50.0782,45.6897
49.9906,45.8208
49.9906,45.8208
49.9303,45.9665
49.9303,45.9665
49.8995,46.1212
46.7762,46.1212
46.7218,46.0397
46.7218,46.0397
46.6103,45.9282
46.6103,45.9282
46.4792,45.8406
46.4792,45.8406
46.3335,45.7803
46.3335,45.7803
46.1788,45.7495
46.1788,45.7495
46.0212,45.7495
46.0212,45.7495
45.8665,45.7803
45.8665,45.7803
45.7208,45.8406
45.7208,45.8406
45.5897,45.9282
45.5897,45.9282
45.4782,46.0397
45.4782,46.0397
45.3906,46.1708
45.3906,46.1708
45.3303,46.3165
45.3303,46.3165
45.2995,46.4712
44.4005,46.4712
44.4005,44.8212
48.1995,44.8212
48.1995,44.9788
48.2303,45.1335
48.2303,45.1335
48.2906,45.2792
48.2906,45.2792
48.3782,45.4103
48.3782,45.4103
48.4897,45.5218
48.4897,45.5218
48.6208,45.6094
48.6208,45.6094
48.7250,45.6525
48.7665,45.6697
48.9095,45.6982
48.9212,45.7005
48.9212,45.7005
48.9212,45.7005
49.0788,45.7005
49.0788,45.7005
49.2335,45.6697
49.3462,45.6231
49.3792,45.6094
49.3792,45.6094
49.3792,45.6094
49.5103,45.5218
49.6218,45.4103
49.7094,45.2792
49.7127,45.2712
49.7286,45.2328
49.7697,45.1335
49.8005,44.9788
49.8005,44.8212
49.8005,44.8212
49.8005,44.8212
49.7820,44.7282
49.7697,44.6665
49.7697,44.6665
49.7094,44.5208
49.7094,44.5208
49.6214,44.3891
49.6005,44.3224
49.6005,44.3202
49.6005,43.9999
49.6202,43.9329
49.6730,43.8871
49.7421,43.8772
49.7605,43.8812
49.7632,43.8820
49.7632,43.8821
49.7632,43.8821
49.7632,43.8821
49.9565,43.9205
49.9565,43.9205
51.2535,43.9205
51.3836,43.8946
51.4468,43.8821
51.6289,43.8066
51.7928,43.6971
51.9321,43.5578
52.0416,43.3939
52.1171,43.2118
52.1555,43.0185
52.1555,42.8215
52.1555,42.8215
52.1171,42.6282
52.1171,42.6282
52.1171,42.6282
52.1056,42.6005
52.0416,42.4461
52.0416,42.4461
51.9321,42.2822
51.9321,42.2822
51.7928,42.1429
51.7928,42.1429
51.6289,42.0334
51.6289,42.0334
51.4468,41.9579
51.4468,41.9579
51.2535,41.9195
51.2535,41.9195
50.7363,41.9195
50.6693,41.8998
50.6235,41.8470
50.6136,41.7779
50.6289,41.7335
50.6413,41.7121
50.6413,41.7121
50.6413,41.7121
50.6805,41.5658
50.6805,41.4142
50.6413,41.2679
50.5655,41.1366
50.4584,41.0295
50.3710,40.9791
50.3271,40.9537
50.2539,40.9341
50.1808,40.9145
50.1341,40.9145
50.0671,40.8948
50.0213,40.8420
50.0114,40.7729
50.0404,40.7093
50.0464,40.7028
50.3124,40.4368
50.3737,40.4033
50.4001,40.4005
53.2392,40.4005
53.3063,40.4202
53.3520,40.4730
53.3620,40.5421
53.3423,40.5934
53.2906,40.6708
53.2906,40.6708
53.2303,40.8165
53.2303,40.8165
53.2099,40.9190
53.1775,40.9809
53.1168,41.0155
53.0641,41.0164
52.9788,40.9995
52.9788,40.9995
52.8212,40.9995
52.8212,40.9995
52.6665,41.0303
52.6665,41.0303
52.5208,41.0906
52.5208,41.0906
52.3897,41.1782
52.3897,41.1782
52.2782,41.2897
52.2782,41.2897
52.1906,41.4208
52.1906,41.4208
52.1303,41.5665
52.1303,41.5665
52.0995,41.7212
52.0995,41.8788
52.1303,42.0335
52.1303,42.0335
52.1906,42.1792
52.1906,42.1792
52.2782,42.3103
52.2782,42.3103
52.3897,42.4218
52.3897,42.4218
52.5208,42.5094
52.5208,42.5094
52.6665,42.5697
52.6665,42.5697
52.8212,42.6005
52.8212,42.6005
52.8212,42.6005
52.9788,42.6005
52.9788,42.6005
53.1335,42.5697
53.2792,42.5094
53.2828,42.5070
69.1706,42.5070
69.1706,42.6647
69.2014,42.8193
69.2014,42.8194
69.2617,42.9650
69.2617,42.9650
69.3493,43.0961
69.3493,43.0961
69.4608,43.2076
69.4608,43.2076
69.5919,43.2952
69.5919,43.2952
69.7376,43.3556
69.7376,43.3556
69.8922,43.3863
69.8922,43.3864
69.8922,43.3864
70.0499,43.3864
70.0499,43.3863
70.2046,43.3556
70.3503,43.2952
70.4814,43.2076
70.5929,43.0961
70.6805,42.9650
70.7408,42.8193
70.7716,42.6647
70.7716,42.5070
70.7716,42.5070
70.7716,42.5070
70.7408,42.3524
70.7408,42.3524
70.7123,42.2835
70.6805,42.2067
70.6805,42.2067
70.5929,42.0756
70.5929,42.0756
70.4885,41.9712
72.7995,41.9712
72.7995,42.1288
72.8303,42.2835
72.8303,42.2835
72.8906,42.4292
72.8906,42.4292
72.9782,42.5603
72.9782,42.5603
73.0897,42.6718
73.0897,42.6718
73.2208,42.7594
73.2208,42.7594
73.3655,42.8193
73.3665,42.8197
73.5212,42.8505
73.5212,42.8505
73.5212,42.8505
73.6788,42.8505
73.6788,42.8505
73.8335,42.8197
73.9025,42.7911
73.9720,42.7837
73.9974,42.7911
74.0665,42.8197
74.2212,42.8505
74.2212,42.8505
74.2212,42.8505
74.3788,42.8505
74.3788,42.8505
74.5335,42.8197
74.6025,42.7911
74.6720,42.7837
74.6974,42.7911
74.7665,42.8197
74.9212,42.8505
74.9212,42.8505
74.9212,42.8505
75.0788,42.8505
75.0788,42.8505
75.2335,42.8197
75.3792,42.7594
75.5103,42.6718
75.6218,42.5603
75.7094,42.4292
75.7697,42.2835
75.8005,42.1288
75.8005,41.9712
75.8005,41.9712
75.8005,41.9712
75.7925,41.9310
75.7697,41.8165
75.7696,41.8161
75.7094,41.6708
75.7094,41.6708
75.6218,41.5397
75.6218,41.5397
75.5103,41.4282
75.5103,41.4282
75.3792,41.3406
75.3792,41.3406
75.2335,41.2803
75.2335,41.2803
75.0788,41.2495
75.0788,41.2495
74.9212,41.2495
74.9212,41.2495
74.7665,41.2803
74.7665,41.2803
74.7665,41.2803
74.7665,41.2803
74.6974,41.3089
74.6280,41.3163
74.6026,41.3089
74.5335,41.2803
74.5335,41.2803
74.5335,41.2803
74.3788,41.2495
74.3788,41.2495
74.2212,41.2495
74.2212,41.2495
74.0665,41.2803
74.0665,41.2803
74.0665,41.2803
74.0665,41.2803
73.9974,41.3089
73.9280,41.3163
73.9026,41.3089
73.8335,41.2803
73.8335,41.2803
73.8335,41.2803
73.6788,41.2495
73.6788,41.2495
73.5212,41.2495
73.5212,41.2495
73.3665,41.2803
73.3665,41.2803
73.2208,41.3406
73.2208,41.3406
73.0897,41.4282
73.0897,41.4282
72.9782,41.5397
72.9782,41.5397
72.8906,41.6708
72.8906,41.6708
72.8303,41.8165
72.8303,41.8165
72.7995,41.9712
70.4885,41.9712
70.4814,41.9641
70.4814,41.9641
70.3503,41.8765
70.3503,41.8765
70.2046,41.8161
70.2046,41.8161
70.0499,41.7854
70.0499,41.7854
69.8922,41.7854
69.8922,41.7854
69.7376,41.8161
69.7376,41.8161
69.5919,41.8765
69.5919,41.8765
69.4608,41.9641
69.4608,41.9641
69.3493,42.0756
69.3493,42.0756
69.2617,42.2067
69.2617,42.2067
69.2014,42.3523
69.2014,42.3524
69.1706,42.5070
53.2828,42.5070
53.4103,42.4218
53.4103,42.4218
53.4188,42.4132
53.5218,42.3103
53.5218,42.3103
53.6094,42.1792
53.6697,42.0335
53.6901,41.9310
53.7225,41.8691
53.7832,41.8345
53.8359,41.8335
53.9212,41.8505
53.9212,41.8505
54.0788,41.8505
54.0788,41.8505
54.2335,41.8197
54.3792,41.7594
54.5103,41.6718
54.6218,41.5603
54.7094,41.4292
54.7129,41.4208
54.7231,41.3962
54.7697,41.2835
54.8005,41.1288
54.8005,40.9712
54.8005,40.9712
54.8005,40.9712
54.7797,40.8665
54.7697,40.8165
54.7301,40.7208
54.7094,40.6708
54.7094,40.6708
54.7094,40.6708
54.6577,40.5934
54.6368,40.5267
54.6553,40.4593
54.7072,40.4126
54.7608,40.4005
62.9726,40.4005
63.0397,40.4202
63.0854,40.4730
63.0954,40.5421
63.0758,40.5934
62.9906,40.7208
62.9906,40.7208
62.9303,40.8665
62.9303,40.8665
62.8995,41.0212
62.8995,41.1788
62.9303,41.3335
62.9303,41.3335
62.9906,41.4792
62.9906,41.4792
63.0782,41.6103
63.0782,41.6103
63.1897,41.7218
63.1897,41.7218
63.3208,41.8094
63.3208,41.8094
63.4201,41.8505
63.4665,41.8697
63.6177,41.8998
63.6212,41.9005
63.6212,41.9005
63.6212,41.9005
63.7788,41.9005
63.7788,41.9005
63.9335,41.8697
64.0025,41.8411
64.0720,41.8337
64.0974,41.8411
64.1665,41.8697
64.3177,41.8998
64.3212,41.9005
64.3212,41.9005
64.3212,41.9005
64.4788,41.9005
64.4788,41.9005
64.6335,41.8697
64.7025,41.8411
64.7720,41.8337
64.7974,41.8411
64.8665,41.8697
65.0177,41.8998
65.0212,41.9005
65.0212,41.9005
65.0212,41.9005
65.1788,41.9005
65.1788,41.9005
65.3335,41.8697
65.4792,41.8094
65.6103,41.7218
65.7218,41.6103
65.8094,41.4792
65.8697,41.3335
65.9005,41.1788
65.9005,41.0212
65.9005,41.0212
65.9005,41.0212
65.8697,40.8665
65.8596,40.8420
65.8094,40.7208
65.8094,40.7208
65.7242,40.5934
65.7034,40.5267
65.7219,40.4593
65.7738,40.4126
65.8273,40.4005
67.2133,40.4005
67.2133,40.4005
67.2209,40.4005
67.3791,40.4005
67.3791,40.4005
67.5318,40.3596
67.5826,40.3303
67.6687,40.2805
67.7805,40.1687
67.7805,40.1687
67.7907,40.1585
67.7907,40.1585
69.2301,38.7191
69.2915,38.6856
69.3612,38.6906
69.4171,38.7325
69.4324,38.7593
69.4406,38.7792
69.4406,38.7792
69.5282,38.9103
69.5282,38.9103
69.6397,39.0218
69.6397,39.0218
69.7708,39.1094
69.7708,39.1094
69.9165,39.1697
69.9165,39.1697
70.0652,39.1993
70.0712,39.2005
70.0712,39.2005
70.0712,39.2005
70.2288,39.2005
70.2288,39.2005
70.3835,39.1697
70.5292,39.1094
70.6603,39.0218
70.7718,38.9103
70.8594,38.7792
70.9197,38.6335
70.9505,38.4788
70.9505,38.3212
70.9505,38.3212
70.9505,38.3212
70.9462,38.2995
70.9197,38.1665
70.9134,38.1512
70.8594,38.0208
70.8594,38.0208
70.8411,37.9934
70.8202,37.9267
70.8387,37.8593
70.8906,37.8126
70.9442,37.8005
72.8634,37.8005
72.8634,37.8005
72.8710,37.8005
73.0291,37.8005
73.0291,37.8005
73.1818,37.7596
73.2345,37.7292
73.3188,37.6805
73.3188,37.6805
73.3239,37.6776
73.3918,37.6611
73.4548,37.6819
73.5708,37.7594
73.5708,37.7594
73.6994,37.8126
73.7165,37.8197
73.8712,37.8505
73.8712,37.8505
73.8712,37.8505
74.0288,37.8505
74.0288,37.8505
74.1835,37.8197
74.3292,37.7594
74.4603,37.6718
74.5718,37.5603
74.6594,37.4292
74.7197,37.2835
74.7505,37.1288
74.7505,36.9712
74.7505,36.9712
74.7505,36.9712
76.0745,36.9712
76.0745,37.1288
76.1053,37.2835
76.1053,37.2835
76.1656,37.4292
76.1656,37.4292
76.2532,37.5603
76.2532,37.5603
76.3647,37.6718
76.3647,37.6718
76.4958,37.7594
76.4958,37.7594
76.6244,37.8126
76.6415,37.8197
76.7962,37.8505
76.7962,37.8505
76.7962,37.8505
76.9538,37.8505
76.9538,37.8505
77.1085,37.8197
77.2542,37.7594
77.3853,37.6718
77.4968,37.5603
77.5844,37.4292
77.6447,37.2835
77.6755,37.1288
77.6755,36.9712
77.6755,36.9712
77.6755,36.9712
77.6676,36.9313
77.6447,36.8165
77.6447,36.8165
77.5844,36.6708
77.5844,36.6708
77.4968,36.5397
77.4968,36.5397
77.3853,36.4282
77.3853,36.4282
77.2542,36.3406
77.2542,36.3406
77.1085,36.2803
77.1085,36.2803
76.9538,36.2495
76.9538,36.2495
76.7962,36.2495
76.7962,36.2495
76.6415,36.2803
76.6415,36.2803
76.4958,36.3406
76.4958,36.3406
76.3647,36.4282
76.3647,36.4282
76.2532,36.5397
76.2532,36.5397
76.1656,36.6708
76.1656,36.6708
76.1053,36.8165
76.1053,36.8165
76.0745,36.9712
74.7505,36.9712
74.7426,36.9313
74.7197,36.8165
74.7197,36.8165
74.6594,36.6708
74.6594,36.6708
74.5718,36.5397
74.5718,36.5397
74.4603,36.4282
74.4603,36.4282
74.3292,36.3406
74.3292,36.3406
74.1990,36.2867
74.1446,36.2428
74.1225,36.1765
74.1398,36.1088
74.1433,36.1032
74.1594,36.0792
74.1659,36.0634
74.1731,36.0462
74.2197,35.9335
74.2505,35.7788
74.2505,35.6212
74.2505,35.6212
74.2505,35.6212
74.2245,35.4906
74.2197,35.4665
74.2197,35.4665
74.1594,35.3208
74.1594,35.3208
74.0718,35.1897
74.0718,35.1897
73.9603,35.0782
73.9603,35.0782
73.8292,34.9906
73.8292,34.9906
73.6835,34.9303
73.6835,34.9303
73.5288,34.8995
73.5288,34.8995
73.3712,34.8995
73.3712,34.8995
73.2165,34.9303
73.2165,34.9303
73.0708,34.9906
73.0708,34.9906
72.9397,35.0782
72.9397,35.0782
72.8282,35.1897
72.8282,35.1897
72.7406,35.3208
72.7406,35.3208
72.6803,35.4665
72.6803,35.4665
72.6495,35.6212
72.6495,35.7788
72.6803,35.9335
72.6803,35.9335
72.7406,36.0792
72.7406,36.0792
72.8286,36.2109
72.8343,36.2289
72.8445,36.2448
72.8489,36.2758
72.8495,36.2776
72.8495,36.2798
72.8495,36.4000
72.8298,36.4670
72.8132,36.4876
72.7376,36.5632
72.6763,36.5967
72.6500,36.5995
69.9791,36.5995
69.8209,36.5995
69.6682,36.6404
69.6682,36.6404
69.6682,36.6404
69.6682,36.6404
69.6181,36.6694
69.6181,36.6694
69.5747,36.6944
69.5313,36.7195
69.5313,36.7195
67.4473,38.8034
67.3860,38.8369
67.3163,38.8319
67.2604,38.7901
67.2360,38.7246
67.2380,38.6916
67.2505,38.6288
67.2505,38.4712
67.2505,38.4712
67.2505,38.4712
67.2207,38.3212
67.2197,38.3165
67.2127,38.2995
67.1594,38.1708
67.1594,38.1708
67.0718,38.0397
67.0718,38.0397
66.9603,37.9282
66.9603,37.9282
66.8292,37.8406
66.8292,37.8406
66.6835,37.7803
66.6835,37.7803
66.6769,37.7789
66.6150,37.7466
66.6134,37.7450
65.8067,36.9384
65.8067,36.9384
65.6879,36.8195
65.6879,36.8195
65.6010,36.7694
65.6010,36.7694
65.6010,36.7694
65.5509,36.7404
65.3982,36.6995
65.2401,36.6995
65.2325,36.6995
65.2325,36.6995
61.8298,36.6995
61.7627,36.6798
61.7609,36.6786
61.6292,36.5906
61.6292,36.5906
61.4835,36.5303
61.4835,36.5303
61.3288,36.4995
61.3288,36.4995
61.1712,36.4995
61.1712,36.4995
61.0165,36.5303
61.0165,36.5303
60.8708,36.5906
60.8708,36.5906
60.7397,36.6782
60.7397,36.6782
60.6282,36.7897
60.6282,36.7897
60.5406,36.9208
60.5406,36.9208
60.4803,37.0665
60.4803,37.0665
60.4495,37.2212
60.4495,37.3788
60.4803,37.5335
60.4803,37.5335
60.5406,37.6792
60.5406,37.6792
60.6282,37.8103
60.6282,37.8103
60.7397,37.9218
60.7397,37.9218
60.8708,38.0094
60.8708,38.0094
60.9474,38.0411
61.0018,38.0849
61.0238,38.1512
61.0066,38.2189
60.9688,38.2588
60.9397,38.2782
60.9397,38.2782
60.8282,38.3897
60.8282,38.3897
60.7406,38.5208
60.7406,38.5208
60.6803,38.6665
60.6803,38.6665
60.6495,38.8212
60.6495,38.9788
60.6639,39.0513
60.6577,39.1209
60.6148,39.1761
60.5489,39.1993
60.5423,39.1995
57.4071,39.1995
57.3401,39.1798
57.2943,39.1270
57.2831,39.0755
57.2831,38.9501
57.2831,38.9501
57.2752,38.9103
57.2523,38.7955
57.2501,38.7901
57.1920,38.6498
57.1920,38.6498
57.1044,38.5187
57.1044,38.5187
56.9929,38.4072
56.9929,38.4072
56.8618,38.3196
56.8618,38.3196
56.7161,38.2593
56.7161,38.2593
56.5614,38.2285
56.5614,38.2285
56.4038,38.2285
56.4038,38.2285
56.2491,38.2593
56.2491,38.2593
56.1034,38.3196
56.1034,38.3196
55.9723,38.4072
55.9723,38.4072
55.8608,38.5187
55.8608,38.5187
55.7732,38.6498
55.7732,38.6498
55.7129,38.7955
55.7129,38.7955
55.6821,38.9501
55.6821,39.0755
55.6624,39.1425
55.6096,39.1883
55.5581,39.1995
50.1867,39.1995
50.1867,39.1995
50.1791,39.1995
50.0209,39.1995
49.8682,39.2404
49.8682,39.2404
49.8682,39.2404
49.8459,39.2533
49.8459,39.2533
49.7313,39.3195
49.7313,39.3195
48.5195,40.5313
48.5195,40.5313
48.5132,40.5421
48.4857,40.5897
48.4694,40.6181
48.4694,40.6181
48.4404,40.6682
48.4404,40.6682
48.4397,40.6708
48.3995,40.8209
48.3995,40.8209
48.3995,40.9890
48.3995,40.9891
48.3995,44.3202
48.3798,44.3873
48.3786,44.3891
48.2906,44.5208
48.2906,44.5208
48.2303,44.6665
48.2303,44.6665
48.1995,44.8212
44.4005,44.8212
44.4005,43.0185
45.1245,43.0185
45.1629,43.2118
45.1629,43.2118
45.2384,43.3939
45.2384,43.3939
45.3479,43.5578
45.3479,43.5578
45.4872,43.6971
45.4872,43.6971
45.6511,43.8066
45.6511,43.8066
45.8214,43.8772
45.8332,43.8821
45.8332,43.8821
45.8332,43.8821
46.0265,43.9205
46.0265,43.9205
46.8235,43.9205
46.9536,43.8946
47.0168,43.8821
47.1989,43.8066
47.3628,43.6971
47.5021,43.5578
47.6116,43.3939
47.6871,43.2118
47.7255,43.0185
47.7255,42.8215
47.7255,42.8215
47.6871,42.6282
47.6871,42.6282
47.6871,42.6282
47.6756,42.6005
47.6116,42.4461
47.6116,42.4461
47.5021,42.2822
47.5021,42.2822
47.3628,42.1429
47.3628,42.1429
47.1989,42.0334
47.1989,42.0334
47.0168,41.9579
47.0168,41.9579
46.8235,41.9195
46.8235,41.9195
46.0265,41.9195
46.0265,41.9195
45.8332,41.9579
45.8332,41.9579
45.6511,42.0334
45.6511,42.0334
45.4872,42.1429
45.4872,42.1429
45.3479,42.2822
45.3479,42.2822
45.2384,42.4461
45.2384,42.4461
45.1629,42.6282
45.1629,42.6282
45.1245,42.8215
45.1245,42.8215
45.1245,43.0185
45.1245,43.0185
45.1245,43.0185
44.4005,43.0185
44.4005,37.2712
53.6995,37.2712
53.6995,37.4288
53.7303,37.5835
53.7303,37.5835
53.7906,37.7292
53.7906,37.7292
53.8782,37.8603
53.8782,37.8603
53.9897,37.9718
53.9897,37.9718
54.1208,38.0594
54.1208,38.0594
54.2176,38.0995
54.2665,38.1197
54.4212,38.1505
54.4212,38.1505
54.4212,38.1505
54.5788,38.1505
54.5788,38.1505
54.7335,38.1197
54.8792,38.0594
55.0103,37.9718
55.1218,37.8603
55.2094,37.7292
55.2697,37.5835
55.3005,37.4288
55.3005,37.2712
55.3005,37.2712
55.3005,37.2712
55.2722,37.1288
55.2697,37.1165
55.2697,37.1165
55.2094,36.9708
55.2094,36.9708
55.1218,36.8397
55.1218,36.8397
55.0103,36.7282
55.0103,36.7282
54.8792,36.6406
54.8792,36.6406
54.7335,36.5803
54.7335,36.5803
54.5788,36.5495
54.5788,36.5495
54.4212,36.5495
54.4212,36.5495
54.2665,36.5803
54.2665,36.5803
54.1208,36.6406
54.1208,36.6406
53.9897,36.7282
53.9897,36.7282
53.8782,36.8397
53.8782,36.8397
53.7906,36.9708
53.7906,36.9708
53.7303,37.1165
53.7303,37.1165
53.6995,37.2712
44.4005,37.2712
44.4005,34.3785
45.1245,34.3785
45.1629,34.5718
45.1629,34.5718
45.2384,34.7539
45.2384,34.7539
45.3479,34.9178
45.3479,34.9178
45.4872,35.0571
45.4872,35.0571
45.6511,35.1666
45.6511,35.1666
45.8332,35.2420
45.8332,35.2421
45.8332,35.2421
45.8332,35.2421
46.0265,35.2805
46.0265,35.2805
46.8235,35.2805
46.9795,35.2495
47.0168,35.2421
47.1989,35.1666
47.3628,35.0571
47.5021,34.9178
47.6116,34.7539
47.6871,34.5718
47.6996,34.5086
47.7255,34.3785
49.0545,34.3785
49.0929,34.5718
49.0929,34.5718
49.1684,34.7539
49.1684,34.7539
49.2779,34.9178
49.2779,34.9178
49.4172,35.0571
49.4172,35.0571
49.5811,35.1666
49.5811,35.1666
49.5811,35.1666
49.5905,35.1705
49.6449,35.2144
49.6670,35.2807
49.6497,35.3484
49.6466,35.3530
49.5687,35.4879
49.5330,35.6212
49.5295,35.6342
49.5295,35.7858
49.5491,35.8590
49.5687,35.9321
49.6066,35.9977
49.6445,36.0634
49.7516,36.1705
49.8215,36.2109
49.8769,36.2428
49.8829,36.2463
50.0292,36.2855
50.0292,36.2855
50.1808,36.2855
50.1808,36.2855
50.3271,36.2463
50.4584,36.1705
50.5655,36.0634
50.6413,35.9321
50.6805,35.7858
50.6805,35.6342
50.6413,35.4879
50.6289,35.4665
50.6289,35.4665
50.6125,35.3986
50.6353,35.3326
50.6498,35.3212
52.0995,35.3212
52.0995,35.4788
52.1303,35.6335
52.1303,35.6335
52.1906,35.7792
52.1906,35.7792
52.2782,35.9103
52.2782,35.9103
52.3897,36.0218
52.3897,36.0218
52.5208,36.1094
52.5208,36.1094
52.6665,36.1697
52.6665,36.1697
52.8212,36.2005
52.8212,36.2005
52.8212,36.2005
52.9788,36.2005
52.9788,36.2005
53.1335,36.1697
53.2508,36.1212
57.1995,36.1212
57.1995,36.2788
57.2303,36.4335
57.2303,36.4335
57.2906,36.5792
57.2906,36.5792
57.3782,36.7103
57.3782,36.7103
57.4897,36.8218
57.4897,36.8218
57.6208,36.9094
57.6208,36.9094
57.7665,36.9697
57.7665,36.9697
57.9212,37.0005
57.9212,37.0005
57.9212,37.0005
58.0788,37.0005
58.0788,37.0005
58.2335,36.9697
58.3516,36.9208
58.3792,36.9094
58.3792,36.9094
58.3792,36.9094
58.5103,36.8218
58.6218,36.7103
58.7094,36.5792
58.7697,36.4335
58.8005,36.2788
58.8005,36.1212
58.8005,36.1212
58.8005,36.1212
58.7921,36.0792
58.7697,35.9665
58.7555,35.9321
58.7094,35.8208
58.7094,35.8208
58.6218,35.6897
58.6218,35.6897
58.5103,35.5782
58.5103,35.5782
58.3792,35.4906
58.3792,35.4906
58.2335,35.4303
58.2335,35.4303
58.0788,35.3995
58.0788,35.3995
57.9212,35.3995
57.9212,35.3995
57.7665,35.4303
57.7665,35.4303
57.6208,35.4906
57.6208,35.4906
57.4897,35.5782
57.4897,35.5782
57.3782,35.6897
57.3782,35.6897
57.2906,35.8208
57.2906,35.8208
57.2303,35.9665
57.2303,35.9665
57.1995,36.1212
53.2508,36.1212
53.2792,36.1094
53.4103,36.0218
53.5218,35.9103
53.6094,35.7792
53.6697,35.6335
53.7005,35.4788
53.7005,35.3212
53.7005,35.3212
53.7005,35.3212
61.4995,35.3212
61.4995,35.4788
61.5303,35.6335
61.5303,35.6335
61.5906,35.7792
61.5906,35.7792
61.6782,35.9103
61.6782,35.9103
61.7897,36.0218
61.7897,36.0218
61.9208,36.1094
61.9208,36.1094
62.0665,36.1697
62.0665,36.1697
62.2212,36.2005
62.2212,36.2005
62.2212,36.2005
62.3788,36.2005
62.3788,36.2005
62.5335,36.1697
62.6792,36.1094
62.8103,36.0218
62.9218,35.9103
63.0094,35.7792
63.0697,35.6335
63.1005,35.4788
63.1005,35.3212
63.1005,35.3212
63.1005,35.3212
63.1004,35.3208
63.0697,35.1665
63.0424,35.1005
63.0094,35.0208
63.0094,35.0208
62.9218,34.8897
62.9218,34.8897
62.8103,34.7782
62.8103,34.7782
62.6792,34.6906
62.6792,34.6906
62.5335,34.6303
62.5335,34.6303
62.3788,34.5995
62.3788,34.5995
62.2212,34.5995
62.2212,34.5995
62.0665,34.6303
62.0665,34.6303
61.9208,34.6906
61.9208,34.6906
61.7897,34.7782
61.7897,34.7782
61.6782,34.8897
61.6782,34.8897
61.5906,35.0208
61.5906,35.0208
61.5303,35.1665
61.5303,35.1665
61.4995,35.3212
53.7005,35.3212
53.7004,35.3208
53.6697,35.1665
53.6424,35.1005
53.6094,35.0208
53.6094,35.0208
53.5218,34.8897
53.5218,34.8897
53.4103,34.7782
53.4103,34.7782
53.2792,34.6906
53.2792,34.6906
53.1335,34.6303
53.1335,34.6303
52.9788,34.5995
52.9788,34.5995
52.8212,34.5995
52.8212,34.5995
52.6665,34.6303
52.6665,34.6303
52.5208,34.6906
52.5208,34.6906
52.3897,34.7782
52.3897,34.7782
52.2782,34.8897
52.2782,34.8897
52.1906,35.0208
52.1906,35.0208
52.1303,35.1665
52.1303,35.1665
52.0995,35.3212
50.6498,35.3212
50.6902,35.2894
50.7363,35.2805
51.2535,35.2805
51.4095,35.2495
51.4468,35.2421
51.4859,35.2259
51.5471,35.2005
51.6289,35.1666
51.6289,35.1666
51.6289,35.1666
51.7928,35.0571
51.9321,34.9178
52.0416,34.7539
52.1171,34.5718
52.1296,34.5086
52.1555,34.3785
52.1555,34.1815
52.1171,33.9882
52.1171,33.9882
52.1171,33.9882
52.1170,33.9882
52.0416,33.8061
52.0416,33.8061
51.9321,33.6422
51.9321,33.6422
51.7928,33.5029
51.7928,33.5029
51.6289,33.3934
51.6289,33.3934
51.4468,33.3179
51.4468,33.3179
51.2535,33.2795
51.2535,33.2795
49.9565,33.2795
49.9565,33.2795
49.7632,33.3179
49.7632,33.3179
49.5811,33.3934
49.5811,33.3934
49.4172,33.5029
49.4172,33.5029
49.2779,33.6422
49.2779,33.6422
49.1684,33.8061
49.1684,33.8061
49.0929,33.9882
49.0929,33.9882
49.0545,34.1815
49.0545,34.1815
49.0545,34.3785
49.0545,34.3785
49.0545,34.3785
47.7255,34.3785
47.7255,34.1815
47.6871,33.9882
47.6871,33.9882
47.6871,33.9882
47.6870,33.9882
47.6116,33.8061
47.6116,33.8061
47.5021,33.6422
47.5021,33.6422
47.3628,33.5029
47.3628,33.5029
47.1989,33.3934
47.1989,33.3934
47.0168,33.3179
47.0168,33.3179
46.8235,33.2795
46.8235,33.2795
46.0265,33.2795
46.0265,33.2795
45.8332,33.3179
45.8332,33.3179
45.6511,33.3934
45.6511,33.3934
45.4872,33.5029
45.4872,33.5029
45.3479,33.6422
45.3479,33.6422
45.2384,33.8061
45.2384,33.8061
45.1629,33.9882
45.1629,33.9882
45.1245,34.1815
45.1245,34.1815
45.1245,34.3785
45.1245,34.3785
45.1245,34.3785
44.4005,34.3785
44.4005,32.9212
52.6995,32.9212
52.6995,33.0788
52.7303,33.2335
52.7303,33.2335
52.7906,33.3792
52.7906,33.3792
52.8782,33.5103
52.8782,33.5103
52.9897,33.6218
52.9897,33.6218
53.1208,33.7094
53.1208,33.7094
53.2478,33.7620
53.2665,33.7697
53.4212,33.8005
53.4212,33.8005
53.4212,33.8005
53.5788,33.8005
53.5788,33.8005
53.7335,33.7697
53.8792,33.7094
54.0103,33.6218
54.1218,33.5103
54.2094,33.3792
54.2697,33.2335
54.3005,33.0788
54.3005,32.9212
54.3005,32.9212
54.3005,32.9212
54.2999,32.9183
54.2697,32.7665
54.2510,32.7212
63.6995,32.7212
63.6995,32.8788
63.7303,33.0335
63.7303,33.0335
63.7906,33.1792
63.7906,33.1792
63.8782,33.3103
63.8782,33.3103
63.9897,33.4218
63.9897,33.4218
64.1208,33.5094
64.1208,33.5094
64.2665,33.5697
64.2665,33.5697
64.4212,33.6005
64.4212,33.6005
64.4212,33.6005
64.5788,33.6005
64.5788,33.6005
64.7335,33.5697
64.8792,33.5094
65.0103,33.4218
65.1218,33.3103
65.2094,33.1792
65.2697,33.0335
65.3005,32.8788
65.3005,32.8788
65.3014,32.8744
65.3338,32.8125
65.3945,32.7779
65.4643,32.7816
65.5209,32.8225
65.5376,32.8511
65.5906,32.9792
65.5906,32.9792
65.6782,33.1103
65.6782,33.1103
65.7897,33.2218
65.7897,33.2218
65.9208,33.3094
65.9208,33.3094
66.0665,33.3697
66.0665,33.3697
66.2212,33.4005
66.2212,33.4005
66.2212,33.4005
66.3788,33.4005
66.3788,33.4005
66.5335,33.3697
66.6792,33.3094
66.8103,33.2218
66.9218,33.1103
67.0094,32.9792
67.0127,32.9712
67.0510,32.8788
67.0697,32.8335
67.1005,32.6788
67.1005,32.5212
67.1005,32.5212
67.1005,32.5212
67.0942,32.4897
67.0697,32.3665
67.0541,32.3288
67.0094,32.2208
67.0094,32.2208
66.9218,32.0897
66.9218,32.0897
66.8103,31.9782
66.8103,31.9782
66.6792,31.8906
66.6792,31.8906
66.5335,31.8303
66.5335,31.8303
66.3788,31.7995
66.3788,31.7995
66.2212,31.7995
66.2212,31.7995
66.0665,31.8303
66.0665,31.8303
65.9208,31.8906
65.9208,31.8906
65.7897,31.9782
65.7897,31.9782
65.6782,32.0897
65.6782,32.0897
65.5906,32.2208
65.5906,32.2208
65.5303,32.3665
65.5303,32.3665
65.4986,32.5256
65.4662,32.5875
65.4055,32.6221
65.3357,32.6184
65.2791,32.5775
65.2624,32.5489
65.2094,32.4208
65.2094,32.4208
65.1218,32.2897
65.1218,32.2897
65.0103,32.1782
65.0103,32.1782
64.8792,32.0906
64.8792,32.0906
64.7335,32.0303
64.7335,32.0303
64.5788,31.9995
64.5788,31.9995
64.4212,31.9995
64.4212,31.9995
64.2665,32.0303
64.2665,32.0303
64.1208,32.0906
64.1208,32.0906
63.9897,32.1782
63.9897,32.1782
63.8782,32.2897
63.8782,32.2897
63.7906,32.4208
63.7906,32.4208
63.7303,32.5665
63.7303,32.5665
63.6995,32.7212
54.2510,32.7212
54.2468,32.7112
54.2094,32.6208
54.2094,32.6208
54.1218,32.4897
54.1218,32.4897
54.0103,32.3782
54.0103,32.3782
53.8792,32.2906
53.8792,32.2906
53.7335,32.2303
53.7335,32.2303
53.5788,32.1995
53.5788,32.1995
53.4212,32.1995
53.4212,32.1995
53.2665,32.2303
53.2665,32.2303
53.1208,32.2906
53.1208,32.2906
52.9897,32.3782
52.9897,32.3782
52.8782,32.4897
52.8782,32.4897
52.7906,32.6208
52.7906,32.6208
52.7303,32.7665
52.7303,32.7665
52.6995,32.9212
44.4005,32.9212
44.4005,30.4712
45.2995,30.4712
45.2995,30.6288
45.3303,30.7835
45.3303,30.7835
45.3906,30.9292
45.3906,30.9292
45.4782,31.0603
45.4782,31.0603
45.5897,31.1718
45.5897,31.1718
45.7208,31.2594
45.7208,31.2594
45.8243,31.3022
45.8665,31.3197
46.0212,31.3505
46.0212,31.3505
46.0212,31.3505
46.1788,31.3505
46.1788,31.3505
46.3335,31.3197
46.4792,31.2594
46.6103,31.1718
46.7218,31.0603
46.8094,30.9292
46.8125,30.9218
46.8627,30.8005
46.8697,30.7835
46.9005,30.6288
46.9005,30.4712
46.9005,30.4712
46.9005,30.4712
46.8921,30.4292
46.8697,30.3165
46.8290,30.2182
46.8094,30.1708
46.8094,30.1708
46.7218,30.0397
46.7218,30.0397
46.6103,29.9282
46.6103,29.9282
46.4792,29.8406
46.4792,29.8406
46.3335,29.7803
46.3335,29.7803
46.1788,29.7495
46.1788,29.7495
46.0212,29.7495
46.0212,29.7495
45.8665,29.7803
45.8665,29.7803
45.7208,29.8406
45.7208,29.8406
45.5897,29.9282
45.5897,29.9282
45.4782,30.0397
45.4782,30.0397
45.3906,30.1708
45.3906,30.1708
45.3303,30.3165
45.3303,30.3165
45.2995,30.4712
44.4005,30.4712
44.4005,29.2245
44.4202,29.1575
44.4730,29.1117
44.5245,29.1005
51.9009,29.1005
Z" /> 
</g>
<g style="fill:#FFFFFF; fill-opacity:1.0000; stroke:none;">
<circle cx="76.3500" cy="30.0500" r="0.1500" /> 
</g>
<g style="fill:#FFFFFF; fill-opacity:1.0000; stroke:none;">
<circle cx="50.6495" cy="30.7750" r="0.1500" /> 
</g>
<g style="fill:#FFFFFF; fill-opacity:1.0000; stroke:none;">
<circle cx="76.3500" cy="32.2500" r="0.1500" /> 
</g>
<g style="fill:#FFFFFF; fill-opacity:1.0000; stroke:none;">
<circle cx="63.3000" cy="38.2000" r="0.1500" /> 
</g>
<g style="fill:#FFFFFF; fill-opacity:1.0000; stroke:none;">
<circle cx="66.3000" cy="32.6000" r="0.1500" /> 
</g>
<g style="fill:#FFFFFF; fill-opacity:1.0000; stroke:none;">
<circle cx="77.7500" cy="31.3000" r="0.1500" /> 
</g>
<g style="fill:#FFFFFF; fill-opacity:1.0000; stroke:none;">
<circle cx="70.1500" cy="38.4000" r="0.1500" /> 
</g>
<g style="fill:#FFFFFF; fill-opacity:1.0000; stroke:none;">
<circle cx="64.5000" cy="32.8000" r="0.1500" /> 
</g>
<g style="fill:#FFFFFF; fill-opacity:1.0000; stroke:none;">
<circle cx="54.5000" cy="37.3500" r="0.1500" /> 
</g>
<g style="fill:#FFFFFF; fill-opacity:1.0000; stroke:none;">
<circle cx="76.3500" cy="44.3000" r="0.1500" /> 
</g>
<g style="fill:#FFFFFF; fill-opacity:1.0000; stroke:none;">
<circle cx="53.5000" cy="33.0000" r="0.1500" /> 
</g>
<g style="fill:#FFFFFF; fill-opacity:1.0000; stroke:none;">
<circle cx="73.6000" cy="45.2500" r="0.1500" /> 
</g>
<g style="fill:#FFFFFF; fill-opacity:1.0000; stroke:none;">
<circle cx="54.0000" cy="41.0500" r="0.1500" /> 
</g>
<g style="fill:#FFFFFF; fill-opacity:1.0000; stroke:none;">
<circle cx="63.7000" cy="41.1000" r="0.1500" /> 
</g>
<g style="fill:#FFFFFF; fill-opacity:1.0000; stroke:none;">
<circle cx="73.9500" cy="37.0500" r="0.1500" /> 
</g>
<g style="fill:#FFFFFF; fill-opacity:1.0000; stroke:none;">
<circle cx="75.6000" cy="46.7000" r="0.1500" /> 
</g>
<g style="fill:#FFFFFF; fill-opacity:1.0000; stroke:none;">
<circle cx="77.0500" cy="32.2500" r="0.1500" /> 
</g>
<g style="fill:#FFFFFF; fill-opacity:1.0000; stroke:none;">
<circle cx="76.3500" cy="47.5000" r="0.1500" /> 
</g>
<g style="fill:#FFFFFF; fill-opacity:1.0000; stroke:none;">
<circle cx="76.3500" cy="33.5000" r="0.1500" /> 
</g>
<g style="fill:#FFFFFF; fill-opacity:1.0000; stroke:none;">
<circle cx="74.3000" cy="42.0500" r="0.1500" /> 
</g>
<g style="fill:#FFFFFF; fill-opacity:1.0000; stroke:none;">
<circle cx="66.3000" cy="30.0000" r="0.1500" /> 
</g>
<g style="fill:#FFFFFF; fill-opacity:1.0000; stroke:none;">
<circle cx="77.0500" cy="31.3000" r="0.1500" /> 
</g>
<g style="fill:#FFFFFF; fill-opacity:1.0000; stroke:none;">
<circle cx="76.3500" cy="45.3000" r="0.1500" /> 
</g>
<g style="fill:#FFFFFF; fill-opacity:1.0000; stroke:none;">
<circle cx="75.0000" cy="42.0500" r="0.1500" /> 
</g>
<g style="fill:#FFFFFF; fill-opacity:1.0000; stroke:none;">
<circle cx="77.7500" cy="32.2500" r="0.1500" /> 
</g>
<g style="fill:#FFFFFF; fill-opacity:1.0000; stroke:none;">
<circle cx="74.3000" cy="45.2500" r="0.1500" /> 
</g>
<g style="fill:#FFFFFF; fill-opacity:1.0000; stroke:none;">
<circle cx="65.1000" cy="46.7500" r="0.1500" /> 
</g>
<g style="fill:#FFFFFF; fill-opacity:1.0000; stroke:none;">
<circle cx="46.1000" cy="30.5500" r="0.1500" /> 
</g>
<g style="fill:#FFFFFF; fill-opacity:1.0000; stroke:none;">
<circle cx="76.8750" cy="37.0500" r="0.1500" /> 
</g>
<g style="fill:#FFFFFF; fill-opacity:1.0000; stroke:none;">
<circle cx="77.0500" cy="47.5000" r="0.1500" /> 
</g>
<g style="fill:#FFFFFF; fill-opacity:1.0000; stroke:none;">
<circle cx="77.7500" cy="30.0500" r="0.1500" /> 
</g>
<g style="fill:#FFFFFF; fill-opacity:1.0000; stroke:none;">
<circle cx="58.0000" cy="36.2000" r="0.1500" /> 
</g>
<g style="fill:#FFFFFF; fill-opacity:1.0000; stroke:none;">
<circle cx="70.8500" cy="33.3000" r="0.1500" /> 
</g>
<g style="fill:#FFFFFF; fill-opacity:1.0000; stroke:none;">
<circle cx="65.1000" cy="45.3500" r="0.1500" /> 
</g>
<g style="fill:#FFFFFF; fill-opacity:1.0000; stroke:none;">
<circle cx="64.4000" cy="41.1000" r="0.1500" /> 
</g>
<g style="fill:#FFFFFF; fill-opacity:1.0000; stroke:none;">
<circle cx="75.0000" cy="44.2500" r="0.1500" /> 
</g>
<g style="fill:#FFFFFF; fill-opacity:1.0000; stroke:none;">
<circle cx="65.1000" cy="46.0500" r="0.1500" /> 
</g>
<g style="fill:#FFFFFF; fill-opacity:1.0000; stroke:none;">
<circle cx="77.0500" cy="46.5000" r="0.1500" /> 
</g>
<g style="fill:#FFFFFF; fill-opacity:1.0000; stroke:none;">
<circle cx="74.2000" cy="30.4000" r="0.1500" /> 
</g>
<g style="fill:#FFFFFF; fill-opacity:1.0000; stroke:none;">
<circle cx="77.0500" cy="33.5000" r="0.1500" /> 
</g>
<g style="fill:#FFFFFF; fill-opacity:1.0000; stroke:none;">
<circle cx="74.3000" cy="44.2500" r="0.1500" /> 
</g>
<g style="fill:#FFFFFF; fill-opacity:1.0000; stroke:none;">
<circle cx="73.6000" cy="44.2500" r="0.1500" /> 
</g>
<g style="fill:#FFFFFF; fill-opacity:1.0000; stroke:none;">
<circle cx="52.9000" cy="35.4000" r="0.1500" /> 
</g>
<g style="fill:#FFFFFF; fill-opacity:1.0000; stroke:none;">
<circle cx="77.7500" cy="46.5000" r="0.1500" /> 
</g>
<g style="fill:#FFFFFF; fill-opacity:1.0000; stroke:none;">
<circle cx="75.0000" cy="45.2500" r="0.1500" /> 
</g>
<g style="fill:#FFFFFF; fill-opacity:1.0000; stroke:none;">
<circle cx="66.7000" cy="47.3000" r="0.1500" /> 
</g>
<g style="fill:#FFFFFF; fill-opacity:1.0000; stroke:none;">
<circle cx="73.6000" cy="42.0500" r="0.1500" /> 
</g>
<g style="fill:#FFFFFF; fill-opacity:1.0000; stroke:none;">
<circle cx="56.4826" cy="39.0290" r="0.1500" /> 
</g>
<g style="fill:#FFFFFF; fill-opacity:1.0000; stroke:none;">
<circle cx="52.9000" cy="41.8000" r="0.1500" /> 
</g>
<g style="fill:#FFFFFF; fill-opacity:1.0000; stroke:none;">
<circle cx="77.0500" cy="44.3000" r="0.1500" /> 
</g>
<g style="fill:#FFFFFF; fill-opacity:1.0000; stroke:none;">
<circle cx="65.1000" cy="41.1000" r="0.1500" /> 
</g>
<g style="fill:#FFFFFF; fill-opacity:1.0000; stroke:none;">
<circle cx="77.7500" cy="47.5000" r="0.1500" /> 
</g>
<g style="fill:#FFFFFF; fill-opacity:1.0000; stroke:none;">
<circle cx="76.3500" cy="46.5000" r="0.1500" /> 
</g>
<g style="fill:#FFFFFF; fill-opacity:1.0000; stroke:none;">
<circle cx="61.0000" cy="31.1000" r="0.1500" /> 
</g>
<g style="fill:#FFFFFF; fill-opacity:1.0000; stroke:none;">
<circle cx="76.3500" cy="31.3000" r="0.1500" /> 
</g>
<g style="fill:#FFFFFF; fill-opacity:1.0000; stroke:none;">
<circle cx="50.7000" cy="46.2000" r="0.1500" /> 
</g>
<g style="fill:#FFFFFF; fill-opacity:1.0000; stroke:none;">
<circle cx="77.0500" cy="45.3000" r="0.1500" /> 
</g>
<g style="fill:#FFFFFF; fill-opacity:1.0000; stroke:none;">
<circle cx="77.7500" cy="44.3000" r="0.1500" /> 
</g>
<g style="fill:#FFFFFF; fill-opacity:1.0000; stroke:none;">
<circle cx="77.7500" cy="45.3000" r="0.1500" /> 
</g>
<g style="fill:#FFFFFF; fill-opacity:1.0000; stroke:none;">
<circle cx="77.0500" cy="30.0500" r="0.1500" /> 
</g>
<g style="fill:#FFFFFF; fill-opacity:1.0000; stroke:none;">
<circle cx="62.3000" cy="35.4000" r="0.1500" /> 
</g>
<g style="fill:#FFFFFF; fill-opacity:1.0000; stroke:none;">
<circle cx="46.1000" cy="46.5500" r="0.1500" /> 
</g>
<g style="fill:#FFFFFF; fill-opacity:1.0000; stroke:none;">
<circle cx="77.7500" cy="33.5000" r="0.1500" /> 
</g>
<g style="fill:#FFFFFF; fill-opacity:1.0000; stroke:none;">
<circle cx="74.2000" cy="32.5000" r="0.1500" /> 
</g>
<g style="fill:#FFFFFF; fill-opacity:1.0000; stroke:none;">
<circle cx="66.4750" cy="36.6750" r="0.1500" /> 
</g>
<g style="fill:#FFFFFF; fill-opacity:1.0000; stroke:none;">
<circle cx="52.1000" cy="32.6000" r="0.1500" /> 
</g>
<g style="fill:#FFFFFF; fill-opacity:1.0000; stroke:none;">
<circle cx="52.1000" cy="44.5000" r="0.1500" /> 
</g>
<g style="fill:#FFFFFF; fill-opacity:1.0000; stroke:none;">
<circle cx="67.9156" cy="30.7890" r="0.1500" /> 
</g>
<g style="fill:#FFFFFF; fill-opacity:1.0000; stroke:none;">
<circle cx="62.5000" cy="30.8000" r="0.1500" /> 
</g>
<g style="fill:#FFFFFF; fill-opacity:1.0000; stroke:none;">
<circle cx="77.4750" cy="35.6750" r="0.1500" /> 
</g>
<g style="fill:#FFFFFF; fill-opacity:1.0000; stroke:none;">
<circle cx="66.8500" cy="40.8000" r="0.1500" /> 
</g>
<g style="fill:#FFFFFF; fill-opacity:1.0000; stroke:none;">
<circle cx="70.8500" cy="34.7800" r="0.1500" /> 
</g>
<g style="fill:#FFFFFF; fill-opacity:1.0000; stroke:none;">
<circle cx="71.8625" cy="42.0375" r="0.1500" /> 
</g>
<g style="fill:#FFFFFF; fill-opacity:1.0000; stroke:none;">
<circle cx="49.0000" cy="44.9000" r="0.1500" /> 
</g>
<g style="fill:#FFFFFF; fill-opacity:1.0000; stroke:none;">
<circle cx="73.4500" cy="35.7000" r="0.1500" /> 
</g>
<g style="fill:#FFFFFF; fill-opacity:1.0000; stroke:none;">
<circle cx="72.2500" cy="33.0500" r="0.1500" /> 
</g>
<g style="fill:#FFFFFF; fill-opacity:1.0000; stroke:none;">
<circle cx="51.8500" cy="30.3000" r="0.1500" /> 
</g>
<g style="fill:#FFFFFF; fill-opacity:1.0000; stroke:none;">
<circle cx="61.4500" cy="38.9000" r="0.1500" /> 
</g>
<g style="fill:#FFFFFF; fill-opacity:1.0000; stroke:none;">
<circle cx="65.6528" cy="38.4836" r="0.1500" /> 
</g>
<g style="fill:#FFFFFF; fill-opacity:1.0000; stroke:none;">
<circle cx="66.4500" cy="38.5500" r="0.1500" /> 
</g>
<g style="fill:#FFFFFF; fill-opacity:1.0000; stroke:none;">
<circle cx="61.2500" cy="37.3000" r="0.1500" /> 
</g>
<g style="fill:#FFFFFF; fill-opacity:1.0000; stroke:none;">
<circle cx="69.9711" cy="42.5859" r="0.1500" /> 
</g>
<g style="fill:#FFFFFF; fill-opacity:1.0000; stroke:none;">
<circle cx="62.3500" cy="44.3000" r="0.1500" /> 
</g>
<g style="fill:#FFFFFF; fill-opacity:1.0000; stroke:none;">
<circle cx="69.5000" cy="33.3828" r="0.1500" /> 
</g>
<g style="fill:#FFFFFF; fill-opacity:1.0000; stroke:none;">
<circle cx="70.6000" cy="30.9679" r="0.1500" /> 
</g>
<g style="fill:#FFFFFF; fill-opacity:1.0000; stroke:none;">
<circle cx="69.8465" cy="30.6993" r="0.1500" /> 
</g>
<g style="fill:#FFFFFF; fill-opacity:1.0000; stroke:none;">
<circle cx="71.6500" cy="34.3000" r="0.1500" /> 
</g>
<g style="fill:#000000; fill-opacity:1.0000; stroke:none;">
<circle cx="50.1050" cy="35.7100" r="0.3250" /> 
</g>
<g style="fill:#000000; fill-opacity:1.0000; stroke:none;">
<circle cx="50.1050" cy="41.4900" r="0.3250" /> 
</g>
<g style="fill:none; 
stroke:#FFFFFF; stroke-width:0.6000; stroke-opacity:1; 
stroke-linecap:round; stroke-linejoin:round;">
<path d="M51.1550 34.2800
L50.0550 34.2800
" />
<path d="M46.7250 34.2800
L46.1250 34.2800
" />
<path d="M51.1550 42.9200
L50.0550 42.9200
" />
<path d="M46.7250 42.9200
L46.1250 42.9200
" />
</g>
<g style="fill:#FFFFFF; fill-opacity:1.0000; stroke:none;">
<circle cx="78.8500" cy="45.0500" r="0.1500" /> 
</g>
<g style="fill:#FFFFFF; fill-opacity:1.0000; stroke:none;">
<circle cx="55.2300" cy="46.5500" r="0.5000" /> 
</g>
<g style="fill:#FFFFFF; fill-opacity:1.0000; stroke:none;">
<circle cx="57.7700" cy="46.5500" r="0.5000" /> 
</g>
<g style="fill:#FFFFFF; fill-opacity:1.0000; stroke:none;">
<circle cx="60.3100" cy="46.5500" r="0.5000" /> 
</g>
<g style="fill:#FFFFFF; fill-opacity:1.0000; stroke:none;">
<circle cx="62.8500" cy="46.5500" r="0.5000" /> 
</g> 
</svg>
