<?xml version="1.0" standalone="no"?>
 <!DOCTYPE svg PUBLIC "-//W3C//DTD SVG 1.1//EN" 
 "http://www.w3.org/Graphics/SVG/1.1/DTD/svg11.dtd"> 
<svg
  xmlns:svg="http://www.w3.org/2000/svg"
  xmlns="http://www.w3.org/2000/svg"
  xmlns:xlink="http://www.w3.org/1999/xlink"
  version="1.1"
  width="157.4800mm" height="87.4776mm" viewBox="0.0000 0.0000 157.4800 87.4776">
<title>SVG Image created as esp-F_Silkscreen.svg date 2026/03/04 12:56:00 </title>
  <desc>Image generated by PCBNEW </desc>
<g style="fill:#000000; fill-opacity:1.0000;stroke:#000000; stroke-opacity:1.0000;
stroke-linecap:round; stroke-linejoin:round;"
 transform="translate(0 0) scale(1 1)">
</g>
<g style="fill:none; 
stroke:#DCC8FF; stroke-width:0.1200; stroke-opacity:1; 
stroke-linecap:round; stroke-linejoin:round;">
<path d="M55.9887 36.9350
L56.5113 36.9350
" />
<path d="M55.9887 35.4650
L56.5113 35.4650
" />
<path d="M75.9213 36.3650
L75.3987 36.3650
" />
<path d="M75.9213 34.8950
L75.3987 34.8950
" />
<path d="M59.1594 31.6100
L59.4406 31.6100
" />
<path d="M59.1594 30.5900
L59.4406 30.5900
" />
<path d="M60.6964 44.5800
L61.0036 44.5800
" />
<path d="M60.6964 43.8200
L61.0036 43.8200
" />
<path d="M49.2800 43.3000
L47.5000 43.3000
" />
<path d="M52.2000 35.8000
L52.2000 35.0000
" />
<path d="M49.2800 33.9000
L47.5000 33.9000
" />
<path d="M73.2000 32.3750
L72.7000 32.3750
" />
<path d="M68.0000 32.0750
L68.0000 31.3250
" />
<path d="M73.2000 31.8750
L73.2000 32.3750
" />
<path d="M68.0000 29.5750
L68.0000 29.0750
" />
<path d="M68.0000 29.0750
L68.5000 29.0750
" />
<path d="M72.7000 29.0750
L73.2000 29.0750
" />
<path d="M73.2000 29.0750
L73.2000 29.5750
" />
<path style="fill:#DCC8FF; fill-opacity:1.0000; 
stroke:#DCC8FF; stroke-width:0.1200; stroke-opacity:1; 
stroke-linecap:round; stroke-linejoin:round;fill-rule:evenodd;"
d="M 68.0000,32.6350
67.6400,32.2750
68.0000,32.2750
Z" /> 
</g>
<g style="fill:none; 
stroke:#DCC8FF; stroke-width:0.1200; stroke-opacity:1; 
stroke-linecap:round; stroke-linejoin:round;">
<path d="M58.1464 44.5800
L58.4536 44.5800
" />
<path d="M58.1464 43.8200
L58.4536 43.8200
" />
<path d="M64.2250 31.6600
L66.2250 31.6600
" />
<path d="M64.2250 29.4400
L66.2250 29.4400
" />
<path style="fill:#DCC8FF; fill-opacity:1.0000; 
stroke:#DCC8FF; stroke-width:0.1200; stroke-opacity:1; 
stroke-linecap:round; stroke-linejoin:round;fill-rule:evenodd;"
d="M 63.8750,29.7300
63.5950,29.7300
63.8750,29.4500
Z" /> 
</g>
<g style="fill:none; 
stroke:#DCC8FF; stroke-width:0.1200; stroke-opacity:1; 
stroke-linecap:round; stroke-linejoin:round;">
<path d="M59.1594 29.9100
L59.4406 29.9100
" />
<path d="M59.1594 28.8900
L59.4406 28.8900
" />
<path d="M44.8000 48.2000
L49.0000 48.2000
" />
<path d="M49.0000 48.2000
L49.0000 47.8100
" />
<path d="M44.8000 47.8100
L44.8000 48.2000
" />
<path d="M44.8000 45.2900
L44.8000 44.9000
" />
<path d="M44.8000 44.9000
L49.0000 44.9000
" />
<path d="M49.0000 44.9000
L49.0000 45.2900
" />
<path d="M44.8000 32.2000
L49.0000 32.2000
" />
<path d="M49.0000 32.2000
L49.0000 31.8100
" />
<path d="M44.8000 31.8100
L44.8000 32.2000
" />
<path d="M44.8000 29.2900
L44.8000 28.9000
" />
<path d="M44.8000 28.9000
L49.0000 28.9000
" />
<path d="M49.0000 28.9000
L49.0000 29.2900
" />
<path d="M73.7344 47.2100
L74.0156 47.2100
" />
<path d="M73.7344 46.1900
L74.0156 46.1900
" />
<path d="M67.5900 47.6600
L71.0100 47.6600
" />
<path d="M71.0100 47.6600
L71.0100 43.5400
" />
<path d="M67.5400 41.0100
L67.5400 40.5350
" />
<path d="M68.0150 41.0100
L67.5400 41.0100
" />
<path d="M72.2850 41.0100
L72.4600 41.0100
" />
<path d="M72.7600 40.5350
L72.7600 40.7700
" />
<path d="M67.5400 35.7900
L67.5400 36.2650
" />
<path d="M68.0150 35.7900
L67.5400 35.7900
" />
<path d="M72.2850 35.7900
L72.7600 35.7900
" />
<path d="M72.7600 35.7900
L72.7600 36.2650
" />
<path style="fill:#DCC8FF; fill-opacity:1.0000; 
stroke:#DCC8FF; stroke-width:0.1200; stroke-opacity:1; 
stroke-linecap:round; stroke-linejoin:round;fill-rule:evenodd;"
d="M 73.0000,41.3400
72.5200,41.3400
72.7600,41.0100
Z" /> 
</g>
<g style="fill:none; 
stroke:#DCC8FF; stroke-width:0.1200; stroke-opacity:1; 
stroke-linecap:round; stroke-linejoin:round;">
<path d="M76.5150 38.0628
L76.5150 37.8472
" />
<path d="M77.2350 38.0628
L77.2350 37.8472
" />
<path d="M70.4900 34.4078
L70.4900 34.1922
" />
<path d="M71.2100 34.4078
L71.2100 34.1922
" />
<path d="M71.7400 42.9422
L71.7400 43.1578
" />
<path d="M72.4600 42.9422
L72.4600 43.1578
" />
<path d="M62.8450 30.6464
L62.8450 30.9536
" />
<path d="M63.6050 30.6464
L63.6050 30.9536
" />
<path d="M63.9900 34.2594
L63.9900 34.5406
" />
<path d="M65.0100 34.2594
L65.0100 34.5406
" />
<path d="M50.1900 30.4594
L50.1900 30.7406
" />
<path d="M51.2100 30.4594
L51.2100 30.7406
" />
<path d="M52.9900 33.5406
L52.9900 33.2594
" />
<path d="M54.0100 33.5406
L54.0100 33.2594
" />
<path d="M73.5400 40.5222
L73.5400 40.7378
" />
<path d="M74.2600 40.5222
L74.2600 40.7378
" />
<path d="M53.3364 37.7300
L53.6436 37.7300
" />
<path d="M53.3364 36.9700
L53.6436 36.9700
" />
<path d="M50.1900 46.6656
L50.1900 46.3844
" />
<path d="M51.2100 46.6656
L51.2100 46.3844
" />
<path d="M59.6406 36.6100
L59.3594 36.6100
" />
<path d="M59.6406 35.5900
L59.3594 35.5900
" />
<path d="M53.3364 40.7300
L53.6436 40.7300
" />
<path d="M53.3364 39.9700
L53.6436 39.9700
" />
<path d="M57.1500 39.5900
L55.8500 39.5900
" />
<path d="M57.1500 37.6100
L56.1000 37.6100
" />
<path style="fill:#DCC8FF; fill-opacity:1.0000; 
stroke:#DCC8FF; stroke-width:0.1200; stroke-opacity:1; 
stroke-linecap:round; stroke-linejoin:round;fill-rule:evenodd;"
d="M 55.7300,37.6100
55.4500,37.6100
55.7300,37.3300
Z" /> 
</g>
<g style="fill:none; 
stroke:#DCC8FF; stroke-width:0.1200; stroke-opacity:1; 
stroke-linecap:round; stroke-linejoin:round;">
<path d="M71.3200 46.0464
L71.3200 46.3536
" />
<path d="M72.0800 46.0464
L72.0800 46.3536
" />
<path d="M51.0536 44.8800
L50.7464 44.8800
" />
<path d="M51.0536 44.1200
L50.7464 44.1200
" />
<path d="M66.9578 41.9100
L66.7422 41.9100
" />
<path d="M66.9578 41.1900
L66.7422 41.1900
" />
<path d="M66.1900 45.7406
L66.1900 45.4594
" />
<path d="M67.2100 45.7406
L67.2100 45.4594
" />
<path d="M73.5900 38.0578
L73.5900 37.8422
" />
<path d="M74.3100 38.0578
L74.3100 37.8422
" />
<path d="M76.5400 40.5222
L76.5400 40.7378
" />
<path d="M77.2600 40.5222
L77.2600 40.7378
" />
<path d="M59.1000 35.1600
L58.3000 35.1600
" />
<path d="M59.1000 35.1600
L59.9000 35.1600
" />
<path d="M59.1000 32.0400
L58.3000 32.0400
" />
<path d="M59.1000 32.0400
L59.9000 32.0400
" />
<path style="fill:#DCC8FF; fill-opacity:1.0000; 
stroke:#DCC8FF; stroke-width:0.1200; stroke-opacity:1; 
stroke-linecap:round; stroke-linejoin:round;fill-rule:evenodd;"
d="M 57.8000,32.0900
57.5600,31.7600
58.0400,31.7600
Z" /> 
</g>
<g style="fill:none; 
stroke:#DCC8FF; stroke-width:0.1200; stroke-opacity:1; 
stroke-linecap:round; stroke-linejoin:round;">
<path d="M61.5150 33.3387
L61.5150 33.8613
" />
<path d="M62.9850 33.3387
L62.9850 33.8613
" />
<path d="M65.5650 34.6613
L65.5650 34.1387
" />
<path d="M67.0350 34.6613
L67.0350 34.1387
" />
<path d="M73.6900 30.6594
L73.6900 30.9406
" />
<path d="M74.7100 30.6594
L74.7100 30.9406
" />
<path d="M66.8450 30.6464
L66.8450 30.9536
" />
<path d="M67.6050 30.6464
L67.6050 30.9536
" />
<path d="M53.8500 47.9300
L53.8500 46.5500
" />
<path d="M55.2300 47.9300
L53.8500 47.9300
" />
<path d="M56.5000 47.9300
L64.2300 47.9300
" />
<path d="M56.5000 47.9300
L56.5000 45.1700
" />
<path d="M64.2300 47.9300
L64.2300 45.1700
" />
<path d="M56.5000 45.1700
L64.2300 45.1700
" />
<path d="M61.8000 40.6100
L64.8000 40.6100
" />
<path d="M61.8000 36.3900
L64.8000 36.3900
" />
<path style="fill:#DCC8FF; fill-opacity:1.0000; 
stroke:#DCC8FF; stroke-width:0.1200; stroke-opacity:1; 
stroke-linecap:round; stroke-linejoin:round;fill-rule:evenodd;"
d="M 61.2600,36.9800
60.7800,36.9800
61.2600,36.5000
Z" /> 
</g>
<g style="fill:none; 
stroke:#DCC8FF; stroke-width:0.1200; stroke-opacity:1; 
stroke-linecap:round; stroke-linejoin:round;">
<path d="M51.0536 33.0050
L50.7464 33.0050
" />
<path d="M51.0536 32.2450
L50.7464 32.2450
" />
</g>
<g style="fill:#000000; fill-opacity:1.0000; stroke:none;">
<circle cx="50.1050" cy="35.7100" r="0.3250" /> 
</g>
<g style="fill:#000000; fill-opacity:1.0000; stroke:none;">
<circle cx="50.1050" cy="41.4900" r="0.3250" /> 
</g>
<g style="fill:none; 
stroke:#000000; stroke-width:0.6000; stroke-opacity:1; 
stroke-linecap:round; stroke-linejoin:round;">
<path d="M51.1550 34.2800
L50.0550 34.2800
" />
<path d="M46.7250 34.2800
L46.1250 34.2800
" />
<path d="M51.1550 42.9200
L50.0550 42.9200
" />
<path d="M46.7250 42.9200
L46.1250 42.9200
" />
</g>
<g style="fill:#000000; fill-opacity:1.0000; stroke:none;">
<circle cx="78.8500" cy="45.0500" r="0.1500" /> 
</g>
<g style="fill:#000000; fill-opacity:1.0000; stroke:none;">
<circle cx="55.2300" cy="46.5500" r="0.5000" /> 
</g>
<g style="fill:#000000; fill-opacity:1.0000; stroke:none;">
<circle cx="57.7700" cy="46.5500" r="0.5000" /> 
</g>
<g style="fill:#000000; fill-opacity:1.0000; stroke:none;">
<circle cx="60.3100" cy="46.5500" r="0.5000" /> 
</g>
<g style="fill:#000000; fill-opacity:1.0000; stroke:none;">
<circle cx="62.8500" cy="46.5500" r="0.5000" /> 
</g> 
</svg>
