<?xml version="1.0" standalone="no"?>
 <!DOCTYPE svg PUBLIC "-//W3C//DTD SVG 1.1//EN" 
 "http://www.w3.org/Graphics/SVG/1.1/DTD/svg11.dtd"> 
<svg
  xmlns:svg="http://www.w3.org/2000/svg"
  xmlns="http://www.w3.org/2000/svg"
  xmlns:xlink="http://www.w3.org/1999/xlink"
  version="1.1"
  width="157.4800mm" height="87.4776mm" viewBox="0.0000 0.0000 157.4800 87.4776">
<title>SVG Image created as esp-In2_Cu.svg date 2026/03/04 12:56:00 </title>
  <desc>Image generated by PCBNEW </desc>
<g style="fill:#000000; fill-opacity:1.0000;stroke:#000000; stroke-opacity:1.0000;
stroke-linecap:round; stroke-linejoin:round;"
 transform="translate(0 0) scale(1 1)">
</g>
<g style="fill:none; 
stroke:#CE7D2C; stroke-width:1.0000; stroke-opacity:1; 
stroke-linecap:round; stroke-linejoin:round;">
<path d="M51.1550 34.2800
L50.0550 34.2800
" />
<path d="M46.7250 34.2800
L46.1250 34.2800
" />
<path d="M51.1550 42.9200
L50.0550 42.9200
" />
<path d="M46.7250 42.9200
L46.1250 42.9200
" />
<path style="fill:#CE7D2C; fill-opacity:1.0000; stroke:none;fill-rule:evenodd;"
d="M 78.6000,44.6000
79.1000,44.6000
79.1000,45.5000
78.6000,45.5000
Z" /> 
<path style="fill:#CE7D2C; fill-opacity:1.0000; stroke:none;fill-rule:evenodd;"
d="M 56.0800,47.4000
54.3800,47.4000
54.3800,45.7000
56.0800,45.7000
Z" /> 
</g>
<g style="fill:#CE7D2C; fill-opacity:1.0000; stroke:none;">
<circle cx="57.7700" cy="46.5500" r="0.8500" /> 
</g>
<g style="fill:#CE7D2C; fill-opacity:1.0000; stroke:none;">
<circle cx="60.3100" cy="46.5500" r="0.8500" /> 
</g>
<g style="fill:#CE7D2C; fill-opacity:1.0000; stroke:none;">
<circle cx="62.8500" cy="46.5500" r="0.8500" /> 
</g>
<g style="fill:#CE7D2C; fill-opacity:1.0000; stroke:none;">
<circle cx="76.3500" cy="30.0500" r="0.3000" /> 
</g>
<g style="fill:#CE7D2C; fill-opacity:1.0000; stroke:none;">
<circle cx="50.6495" cy="30.7750" r="0.3000" /> 
</g>
<g style="fill:#CE7D2C; fill-opacity:1.0000; stroke:none;">
<circle cx="76.3500" cy="32.2500" r="0.3000" /> 
</g>
<g style="fill:#CE7D2C; fill-opacity:1.0000; stroke:none;">
<circle cx="63.3000" cy="38.2000" r="0.3000" /> 
</g>
<g style="fill:#CE7D2C; fill-opacity:1.0000; stroke:none;">
<circle cx="66.3000" cy="32.6000" r="0.3000" /> 
</g>
<g style="fill:#CE7D2C; fill-opacity:1.0000; stroke:none;">
<circle cx="77.7500" cy="31.3000" r="0.3000" /> 
</g>
<g style="fill:#CE7D2C; fill-opacity:1.0000; stroke:none;">
<circle cx="70.1500" cy="38.4000" r="0.3000" /> 
</g>
<g style="fill:#CE7D2C; fill-opacity:1.0000; stroke:none;">
<circle cx="64.5000" cy="32.8000" r="0.3000" /> 
</g>
<g style="fill:#CE7D2C; fill-opacity:1.0000; stroke:none;">
<circle cx="54.5000" cy="37.3500" r="0.3000" /> 
</g>
<g style="fill:#CE7D2C; fill-opacity:1.0000; stroke:none;">
<circle cx="76.3500" cy="44.3000" r="0.3000" /> 
</g>
<g style="fill:#CE7D2C; fill-opacity:1.0000; stroke:none;">
<circle cx="53.5000" cy="33.0000" r="0.3000" /> 
</g>
<g style="fill:#CE7D2C; fill-opacity:1.0000; stroke:none;">
<circle cx="73.6000" cy="45.2500" r="0.3000" /> 
</g>
<g style="fill:#CE7D2C; fill-opacity:1.0000; stroke:none;">
<circle cx="54.0000" cy="41.0500" r="0.3000" /> 
</g>
<g style="fill:#CE7D2C; fill-opacity:1.0000; stroke:none;">
<circle cx="63.7000" cy="41.1000" r="0.3000" /> 
</g>
<g style="fill:#CE7D2C; fill-opacity:1.0000; stroke:none;">
<circle cx="73.9500" cy="37.0500" r="0.3000" /> 
</g>
<g style="fill:#CE7D2C; fill-opacity:1.0000; stroke:none;">
<circle cx="75.6000" cy="46.7000" r="0.3000" /> 
</g>
<g style="fill:#CE7D2C; fill-opacity:1.0000; stroke:none;">
<circle cx="77.0500" cy="32.2500" r="0.3000" /> 
</g>
<g style="fill:#CE7D2C; fill-opacity:1.0000; stroke:none;">
<circle cx="76.3500" cy="47.5000" r="0.3000" /> 
</g>
<g style="fill:#CE7D2C; fill-opacity:1.0000; stroke:none;">
<circle cx="76.3500" cy="33.5000" r="0.3000" /> 
</g>
<g style="fill:#CE7D2C; fill-opacity:1.0000; stroke:none;">
<circle cx="74.3000" cy="42.0500" r="0.3000" /> 
</g>
<g style="fill:#CE7D2C; fill-opacity:1.0000; stroke:none;">
<circle cx="66.3000" cy="30.0000" r="0.3000" /> 
</g>
<g style="fill:#CE7D2C; fill-opacity:1.0000; stroke:none;">
<circle cx="77.0500" cy="31.3000" r="0.3000" /> 
</g>
<g style="fill:#CE7D2C; fill-opacity:1.0000; stroke:none;">
<circle cx="76.3500" cy="45.3000" r="0.3000" /> 
</g>
<g style="fill:#CE7D2C; fill-opacity:1.0000; stroke:none;">
<circle cx="75.0000" cy="42.0500" r="0.3000" /> 
</g>
<g style="fill:#CE7D2C; fill-opacity:1.0000; stroke:none;">
<circle cx="77.7500" cy="32.2500" r="0.3000" /> 
</g>
<g style="fill:#CE7D2C; fill-opacity:1.0000; stroke:none;">
<circle cx="74.3000" cy="45.2500" r="0.3000" /> 
</g>
<g style="fill:#CE7D2C; fill-opacity:1.0000; stroke:none;">
<circle cx="65.1000" cy="46.7500" r="0.3000" /> 
</g>
<g style="fill:#CE7D2C; fill-opacity:1.0000; stroke:none;">
<circle cx="46.1000" cy="30.5500" r="0.3000" /> 
</g>
<g style="fill:#CE7D2C; fill-opacity:1.0000; stroke:none;">
<circle cx="76.8750" cy="37.0500" r="0.3000" /> 
</g>
<g style="fill:#CE7D2C; fill-opacity:1.0000; stroke:none;">
<circle cx="77.0500" cy="47.5000" r="0.3000" /> 
</g>
<g style="fill:#CE7D2C; fill-opacity:1.0000; stroke:none;">
<circle cx="77.7500" cy="30.0500" r="0.3000" /> 
</g>
<g style="fill:#CE7D2C; fill-opacity:1.0000; stroke:none;">
<circle cx="58.0000" cy="36.2000" r="0.3000" /> 
</g>
<g style="fill:#CE7D2C; fill-opacity:1.0000; stroke:none;">
<circle cx="70.8500" cy="33.3000" r="0.3000" /> 
</g>
<g style="fill:#CE7D2C; fill-opacity:1.0000; stroke:none;">
<circle cx="65.1000" cy="45.3500" r="0.3000" /> 
</g>
<g style="fill:#CE7D2C; fill-opacity:1.0000; stroke:none;">
<circle cx="64.4000" cy="41.1000" r="0.3000" /> 
</g>
<g style="fill:#CE7D2C; fill-opacity:1.0000; stroke:none;">
<circle cx="75.0000" cy="44.2500" r="0.3000" /> 
</g>
<g style="fill:#CE7D2C; fill-opacity:1.0000; stroke:none;">
<circle cx="65.1000" cy="46.0500" r="0.3000" /> 
</g>
<g style="fill:#CE7D2C; fill-opacity:1.0000; stroke:none;">
<circle cx="77.0500" cy="46.5000" r="0.3000" /> 
</g>
<g style="fill:#CE7D2C; fill-opacity:1.0000; stroke:none;">
<circle cx="74.2000" cy="30.4000" r="0.3000" /> 
</g>
<g style="fill:#CE7D2C; fill-opacity:1.0000; stroke:none;">
<circle cx="77.0500" cy="33.5000" r="0.3000" /> 
</g>
<g style="fill:#CE7D2C; fill-opacity:1.0000; stroke:none;">
<circle cx="74.3000" cy="44.2500" r="0.3000" /> 
</g>
<g style="fill:#CE7D2C; fill-opacity:1.0000; stroke:none;">
<circle cx="73.6000" cy="44.2500" r="0.3000" /> 
</g>
<g style="fill:#CE7D2C; fill-opacity:1.0000; stroke:none;">
<circle cx="52.9000" cy="35.4000" r="0.3000" /> 
</g>
<g style="fill:#CE7D2C; fill-opacity:1.0000; stroke:none;">
<circle cx="77.7500" cy="46.5000" r="0.3000" /> 
</g>
<g style="fill:#CE7D2C; fill-opacity:1.0000; stroke:none;">
<circle cx="75.0000" cy="45.2500" r="0.3000" /> 
</g>
<g style="fill:#CE7D2C; fill-opacity:1.0000; stroke:none;">
<circle cx="66.7000" cy="47.3000" r="0.3000" /> 
</g>
<g style="fill:#CE7D2C; fill-opacity:1.0000; stroke:none;">
<circle cx="73.6000" cy="42.0500" r="0.3000" /> 
</g>
<g style="fill:#CE7D2C; fill-opacity:1.0000; stroke:none;">
<circle cx="56.4826" cy="39.0290" r="0.3000" /> 
</g>
<g style="fill:#CE7D2C; fill-opacity:1.0000; stroke:none;">
<circle cx="52.9000" cy="41.8000" r="0.3000" /> 
</g>
<g style="fill:#CE7D2C; fill-opacity:1.0000; stroke:none;">
<circle cx="77.0500" cy="44.3000" r="0.3000" /> 
</g>
<g style="fill:#CE7D2C; fill-opacity:1.0000; stroke:none;">
<circle cx="65.1000" cy="41.1000" r="0.3000" /> 
</g>
<g style="fill:#CE7D2C; fill-opacity:1.0000; stroke:none;">
<circle cx="77.7500" cy="47.5000" r="0.3000" /> 
</g>
<g style="fill:#CE7D2C; fill-opacity:1.0000; stroke:none;">
<circle cx="76.3500" cy="46.5000" r="0.3000" /> 
</g>
<g style="fill:#CE7D2C; fill-opacity:1.0000; stroke:none;">
<circle cx="61.0000" cy="31.1000" r="0.3000" /> 
</g>
<g style="fill:#CE7D2C; fill-opacity:1.0000; stroke:none;">
<circle cx="76.3500" cy="31.3000" r="0.3000" /> 
</g>
<g style="fill:#CE7D2C; fill-opacity:1.0000; stroke:none;">
<circle cx="50.7000" cy="46.2000" r="0.3000" /> 
</g>
<g style="fill:#CE7D2C; fill-opacity:1.0000; stroke:none;">
<circle cx="77.0500" cy="45.3000" r="0.3000" /> 
</g>
<g style="fill:#CE7D2C; fill-opacity:1.0000; stroke:none;">
<circle cx="77.7500" cy="44.3000" r="0.3000" /> 
</g>
<g style="fill:#CE7D2C; fill-opacity:1.0000; stroke:none;">
<circle cx="77.7500" cy="45.3000" r="0.3000" /> 
</g>
<g style="fill:#CE7D2C; fill-opacity:1.0000; stroke:none;">
<circle cx="77.0500" cy="30.0500" r="0.3000" /> 
</g>
<g style="fill:#CE7D2C; fill-opacity:1.0000; stroke:none;">
<circle cx="62.3000" cy="35.4000" r="0.3000" /> 
</g>
<g style="fill:#CE7D2C; fill-opacity:1.0000; stroke:none;">
<circle cx="46.1000" cy="46.5500" r="0.3000" /> 
</g>
<g style="fill:#CE7D2C; fill-opacity:1.0000; stroke:none;">
<circle cx="77.7500" cy="33.5000" r="0.3000" /> 
</g>
<g style="fill:#CE7D2C; fill-opacity:1.0000; stroke:none;">
<circle cx="74.2000" cy="32.5000" r="0.3000" /> 
</g>
<g style="fill:#CE7D2C; fill-opacity:1.0000; stroke:none;">
<circle cx="66.4750" cy="36.6750" r="0.3000" /> 
</g>
<g style="fill:#CE7D2C; fill-opacity:1.0000; stroke:none;">
<circle cx="52.1000" cy="32.6000" r="0.3000" /> 
</g>
<g style="fill:#CE7D2C; fill-opacity:1.0000; stroke:none;">
<circle cx="52.1000" cy="44.5000" r="0.3000" /> 
</g>
<g style="fill:#CE7D2C; fill-opacity:1.0000; stroke:none;">
<circle cx="67.9156" cy="30.7890" r="0.3000" /> 
</g>
<g style="fill:#CE7D2C; fill-opacity:1.0000; stroke:none;">
<circle cx="62.5000" cy="30.8000" r="0.3000" /> 
</g>
<g style="fill:#CE7D2C; fill-opacity:1.0000; stroke:none;">
<circle cx="77.4750" cy="35.6750" r="0.3000" /> 
</g>
<g style="fill:#CE7D2C; fill-opacity:1.0000; stroke:none;">
<circle cx="66.8500" cy="40.8000" r="0.3000" /> 
</g>
<g style="fill:#CE7D2C; fill-opacity:1.0000; stroke:none;">
<circle cx="70.8500" cy="34.7800" r="0.3000" /> 
</g>
<g style="fill:#CE7D2C; fill-opacity:1.0000; stroke:none;">
<circle cx="71.8625" cy="42.0375" r="0.3000" /> 
</g>
<g style="fill:#CE7D2C; fill-opacity:1.0000; stroke:none;">
<circle cx="49.0000" cy="44.9000" r="0.3000" /> 
</g>
<g style="fill:#CE7D2C; fill-opacity:1.0000; stroke:none;">
<circle cx="73.4500" cy="35.7000" r="0.3000" /> 
</g>
<g style="fill:#CE7D2C; fill-opacity:1.0000; stroke:none;">
<circle cx="72.2500" cy="33.0500" r="0.3000" /> 
</g>
<g style="fill:#CE7D2C; fill-opacity:1.0000; stroke:none;">
<circle cx="51.8500" cy="30.3000" r="0.3000" /> 
</g>
<g style="fill:#CE7D2C; fill-opacity:1.0000; stroke:none;">
<circle cx="61.4500" cy="38.9000" r="0.3000" /> 
</g>
<g style="fill:#CE7D2C; fill-opacity:1.0000; stroke:none;">
<circle cx="65.6528" cy="38.4836" r="0.3000" /> 
</g>
<g style="fill:#CE7D2C; fill-opacity:1.0000; stroke:none;">
<circle cx="66.4500" cy="38.5500" r="0.3000" /> 
</g>
<g style="fill:#CE7D2C; fill-opacity:1.0000; stroke:none;">
<circle cx="61.2500" cy="37.3000" r="0.3000" /> 
</g>
<g style="fill:#CE7D2C; fill-opacity:1.0000; stroke:none;">
<circle cx="69.9711" cy="42.5859" r="0.3000" /> 
</g>
<g style="fill:#CE7D2C; fill-opacity:1.0000; stroke:none;">
<circle cx="62.3500" cy="44.3000" r="0.3000" /> 
</g>
<g style="fill:#CE7D2C; fill-opacity:1.0000; stroke:none;">
<circle cx="69.5000" cy="33.3828" r="0.3000" /> 
</g>
<g style="fill:#CE7D2C; fill-opacity:1.0000; stroke:none;">
<circle cx="70.6000" cy="30.9679" r="0.3000" /> 
</g>
<g style="fill:#CE7D2C; fill-opacity:1.0000; stroke:none;">
<circle cx="69.8465" cy="30.6993" r="0.3000" /> 
</g>
<g style="fill:#CE7D2C; fill-opacity:1.0000; stroke:none;">
<circle cx="71.6500" cy="34.3000" r="0.3000" /> 
</g>
<g style="fill:none; 
stroke:#CE7D2C; stroke-width:0.2000; stroke-opacity:1; 
stroke-linecap:round; stroke-linejoin:round;">
<path d="M69.9711 42.5859
L69.9711 42.6807
" />
<path d="M69.9711 42.6807
L68.3518 44.3000
" />
<path d="M68.3518 44.3000
L62.3500 44.3000
" />
<path style="fill:#CE7D2C; fill-opacity:1.0000; stroke:none;fill-rule:evenodd;"
d="M 79.0430,29.1202
79.0888,29.1730
79.1000,29.2245
79.1000,47.9755
79.0803,48.0425
79.0275,48.0883
78.9760,48.0995
63.2327,48.0995
63.1657,48.0798
63.1199,48.0270
63.1100,47.9579
63.1390,47.8943
63.1944,47.8576
63.3682,47.8011
63.5576,47.7046
63.6117,47.6653
63.6117,47.6653
62.9794,47.0330
63.0430,47.0159
63.1570,46.9501
63.2501,46.8570
63.3159,46.7430
63.3330,46.6794
63.9653,47.3117
63.9653,47.3117
64.0046,47.2576
64.1011,47.0682
64.1668,46.8661
64.1668,46.8661
64.2000,46.6562
64.2000,46.4438
64.1668,46.2339
64.1668,46.2339
64.1011,46.0318
64.0046,45.8424
63.9653,45.7883
63.9653,45.7883
63.3330,46.4206
63.3159,46.3570
63.2501,46.2430
63.1570,46.1499
63.0430,46.0841
62.9794,46.0670
63.6117,45.4347
63.5575,45.3954
63.3682,45.2989
63.1661,45.2332
62.9562,45.2000
62.8527,45.2000
62.8202,45.1905
62.7875,45.1815
62.7868,45.1806
62.7857,45.1803
62.7635,45.1547
62.7408,45.1295
62.7406,45.1284
62.7399,45.1275
62.7351,45.0940
62.7297,45.0605
62.7301,45.0595
62.7300,45.0584
62.7440,45.0275
62.7575,44.9965
62.7587,44.9955
62.7590,44.9948
62.7838,44.9729
62.8609,44.9214
62.9276,44.9005
62.9298,44.9005
68.2651,44.9005
68.2651,44.9005
68.2727,44.9005
68.4309,44.9005
68.4309,44.9005
68.5836,44.8596
68.6501,44.8212
68.7205,44.7805
68.8323,44.6687
68.8323,44.6687
68.8425,44.6585
68.8425,44.6585
70.1042,43.3969
70.1655,43.3634
70.1676,43.3630
70.2046,43.3556
70.3503,43.2952
70.4814,43.2076
70.5929,43.0961
70.6805,42.9650
70.7408,42.8193
70.7716,42.6647
70.7716,42.5070
70.7716,42.5070
70.7716,42.5070
70.7595,42.4461
70.7408,42.3524
70.7408,42.3523
70.6805,42.2067
70.6805,42.2067
70.5929,42.0756
70.5929,42.0756
70.4814,41.9641
70.4814,41.9641
70.4733,41.9587
71.0620,41.9587
71.0620,42.1163
71.0928,42.2710
71.0928,42.2710
71.1531,42.4167
71.1531,42.4167
71.2407,42.5478
71.2407,42.5478
71.3522,42.6593
71.3522,42.6593
71.4833,42.7469
71.4833,42.7469
71.6290,42.8072
71.6290,42.8072
71.7837,42.8380
71.7837,42.8380
71.7837,42.8380
71.9413,42.8380
71.9413,42.8380
72.0960,42.8072
72.2417,42.7469
72.3728,42.6593
72.4843,42.5478
72.5719,42.4167
72.6322,42.2710
72.6630,42.1163
72.6630,41.9587
72.6630,41.9587
72.6630,41.9587
72.6417,41.8517
72.6322,41.8040
72.6245,41.7854
72.5719,41.6583
72.5719,41.6583
72.4843,41.5272
72.4843,41.5272
72.3728,41.4157
72.3728,41.4157
72.2417,41.3281
72.2417,41.3281
72.0960,41.2678
72.0960,41.2678
71.9413,41.2370
71.9413,41.2370
71.7837,41.2370
71.7837,41.2370
71.6290,41.2678
71.6290,41.2678
71.4833,41.3281
71.4833,41.3281
71.3522,41.4157
71.3522,41.4157
71.2407,41.5272
71.2407,41.5272
71.1531,41.6583
71.1531,41.6583
71.0928,41.8040
71.0928,41.8040
71.0620,41.9587
70.4733,41.9587
70.3503,41.8765
70.3503,41.8765
70.2046,41.8161
70.2046,41.8161
70.0499,41.7854
70.0499,41.7854
69.8922,41.7854
69.8922,41.7854
69.7376,41.8161
69.7376,41.8161
69.5919,41.8765
69.5919,41.8765
69.4608,41.9641
69.4608,41.9641
69.3493,42.0756
69.3493,42.0756
69.2617,42.2067
69.2617,42.2067
69.2014,42.3523
69.2014,42.3524
69.1706,42.5070
69.1706,42.5806
69.1509,42.6476
69.1343,42.6683
68.1394,43.6632
68.0781,43.6967
68.0517,43.6995
62.9298,43.6995
62.8627,43.6798
62.8609,43.6786
62.7292,43.5906
62.7292,43.5906
62.5835,43.5303
62.5835,43.5303
62.4288,43.4995
62.4288,43.4995
62.2712,43.4995
62.2712,43.4995
62.1165,43.5303
62.1165,43.5303
61.9708,43.5906
61.9708,43.5906
61.8397,43.6782
61.8397,43.6782
61.7282,43.7897
61.7282,43.7897
61.6406,43.9208
61.6406,43.9208
61.5803,44.0665
61.5803,44.0665
61.5495,44.2212
61.5495,44.3788
61.5803,44.5335
61.5803,44.5335
61.6406,44.6792
61.6406,44.6792
61.7282,44.8103
61.7282,44.8103
61.8397,44.9218
61.8397,44.9218
61.9708,45.0094
61.9708,45.0094
62.0890,45.0584
62.1165,45.0697
62.1788,45.0821
62.2441,45.0951
62.3060,45.1275
62.3406,45.1882
62.3368,45.2580
62.2960,45.3147
62.2762,45.3272
62.1424,45.3954
62.1424,45.3954
62.0883,45.4347
62.0883,45.4347
62.7206,46.0670
62.6570,46.0841
62.5430,46.1499
62.4499,46.2430
62.3841,46.3570
62.3670,46.4206
61.7347,45.7883
61.7347,45.7883
61.6954,45.8424
61.6954,45.8424
61.6908,45.8515
61.6428,45.9023
61.5750,45.9191
61.5088,45.8965
61.4698,45.8515
61.4651,45.8422
61.4650,45.8422
61.4650,45.8422
61.3401,45.6702
61.1898,45.5199
61.0178,45.3950
60.8284,45.2984
60.8284,45.2984
60.8284,45.2984
60.6262,45.2328
60.6262,45.2328
60.6262,45.2328
60.4650,45.2072
60.4163,45.1995
60.2037,45.1995
60.1550,45.2072
59.9938,45.2328
59.7916,45.2984
59.6022,45.3950
59.4302,45.5199
59.2799,45.6702
59.1549,45.8422
59.1505,45.8509
59.1025,45.9017
59.0347,45.9185
58.9686,45.8960
58.9295,45.8509
58.9250,45.8422
58.8001,45.6702
58.6498,45.5199
58.4778,45.3950
58.2884,45.2984
58.2884,45.2984
58.2884,45.2984
58.0862,45.2328
58.0862,45.2328
58.0862,45.2328
57.9250,45.2072
57.8763,45.1995
57.6637,45.1995
57.6150,45.2072
57.4538,45.2328
57.2516,45.2984
57.0622,45.3950
56.8902,45.5199
56.7767,45.6334
56.7154,45.6669
56.6457,45.6619
56.5897,45.6201
56.5728,45.5891
56.5238,45.4577
56.5238,45.4577
56.4375,45.3425
56.4375,45.3425
56.3223,45.2562
56.3223,45.2562
56.1875,45.2059
56.1875,45.2059
56.1279,45.1995
56.1279,45.1995
56.1279,45.1995
56.1279,45.1995
54.3321,45.1995
54.3321,45.1995
54.2725,45.2059
54.1377,45.2562
54.1377,45.2562
54.0225,45.3425
54.0225,45.3425
53.9362,45.4577
53.9362,45.4577
53.8859,45.5925
53.8795,45.6521
53.8795,45.6521
53.8795,47.4479
53.8795,47.4479
53.8859,47.5075
53.9362,47.6423
53.9362,47.6423
54.0225,47.7575
54.0225,47.7575
54.1377,47.8438
54.1377,47.8438
54.1793,47.8593
54.2352,47.9012
54.2596,47.9667
54.2448,48.0349
54.1954,48.0843
54.1360,48.0995
44.5245,48.0995
44.4575,48.0798
44.4117,48.0270
44.4005,47.9755
44.4005,44.8212
48.1995,44.8212
48.1995,44.9788
48.2303,45.1335
48.2303,45.1335
48.2906,45.2792
48.2906,45.2792
48.3782,45.4103
48.3782,45.4103
48.4897,45.5218
48.4897,45.5218
48.6208,45.6094
48.6208,45.6094
48.7597,45.6669
48.7665,45.6697
48.9212,45.7005
48.9212,45.7005
48.9212,45.7005
49.0788,45.7005
49.0788,45.7005
49.2335,45.6697
49.3792,45.6094
49.5103,45.5218
49.6218,45.4103
49.7094,45.2792
49.7189,45.2562
49.7397,45.2059
49.7697,45.1335
49.8005,44.9788
49.8005,44.8212
49.8005,44.8212
49.8005,44.8212
49.8005,44.8212
49.7924,44.7805
49.7697,44.6665
49.7664,44.6585
49.7094,44.5208
49.7094,44.5208
49.6218,44.3897
49.6218,44.3897
49.5103,44.2782
49.5103,44.2782
49.3792,44.1906
49.3792,44.1906
49.2335,44.1303
49.2335,44.1303
49.0788,44.0995
49.0788,44.0995
48.9212,44.0995
48.9212,44.0995
48.7665,44.1303
48.7665,44.1303
48.6208,44.1906
48.6208,44.1906
48.4897,44.2782
48.4897,44.2782
48.3782,44.3897
48.3782,44.3897
48.2906,44.5208
48.2906,44.5208
48.2303,44.6665
48.2303,44.6665
48.1995,44.8212
44.4005,44.8212
44.4005,43.0185
45.1245,43.0185
45.1629,43.2118
45.1629,43.2118
45.2384,43.3939
45.2384,43.3939
45.3479,43.5578
45.3479,43.5578
45.4872,43.6971
45.4872,43.6971
45.6511,43.8066
45.6511,43.8066
45.8239,43.8782
45.8332,43.8821
45.8332,43.8821
45.8332,43.8821
46.0265,43.9205
46.0265,43.9205
46.8235,43.9205
46.9536,43.8946
47.0168,43.8821
47.1989,43.8066
47.3628,43.6971
47.5021,43.5578
47.6116,43.3939
47.6871,43.2118
47.7255,43.0185
49.0545,43.0185
49.0929,43.2118
49.0929,43.2118
49.1684,43.3939
49.1684,43.3939
49.2779,43.5578
49.2779,43.5578
49.4172,43.6971
49.4172,43.6971
49.5811,43.8066
49.5811,43.8066
49.7539,43.8782
49.7632,43.8821
49.7632,43.8821
49.7632,43.8821
49.9565,43.9205
49.9565,43.9205
51.2535,43.9205
51.2581,43.9196
51.2724,43.9168
51.3420,43.9230
51.3971,43.9658
51.4204,44.0317
51.4043,44.0997
51.3997,44.1073
51.3906,44.1208
51.3906,44.1208
51.3303,44.2665
51.3303,44.2665
51.2995,44.4212
51.2995,44.5788
51.3303,44.7335
51.3303,44.7335
51.3906,44.8792
51.3906,44.8792
51.4782,45.0103
51.4782,45.0103
51.5897,45.1218
51.5897,45.1218
51.7208,45.2094
51.7208,45.2094
51.8665,45.2697
51.8665,45.2697
52.0212,45.3005
52.0212,45.3005
52.0212,45.3005
52.1788,45.3005
52.1788,45.3005
52.3335,45.2697
52.4792,45.2094
52.6103,45.1218
52.7218,45.0103
52.8094,44.8792
52.8697,44.7335
52.9005,44.5788
52.9005,44.4212
52.9005,44.4212
52.9005,44.4212
52.8942,44.3897
52.8697,44.2665
52.8383,44.1906
52.8094,44.1208
52.8094,44.1208
52.7218,43.9897
52.7218,43.9897
52.6103,43.8782
52.6103,43.8782
52.4792,43.7906
52.4792,43.7906
52.3335,43.7303
52.3335,43.7303
52.1788,43.6995
52.1788,43.6995
52.0694,43.6995
52.0024,43.6798
51.9566,43.6270
51.9467,43.5579
51.9663,43.5066
52.0416,43.3939
52.0416,43.3939
52.0416,43.3939
52.1171,43.2118
52.1555,43.0185
52.1555,42.8215
52.1555,42.8215
52.1171,42.6282
52.1171,42.6282
52.1171,42.6282
52.1170,42.6282
52.0416,42.4461
52.0416,42.4461
51.9321,42.2822
51.9321,42.2822
51.7928,42.1429
51.7928,42.1429
51.6289,42.0334
51.6289,42.0334
51.4468,41.9579
51.4468,41.9579
51.2535,41.9195
51.2535,41.9195
50.7363,41.9195
50.6693,41.8998
50.6235,41.8470
50.6136,41.7779
50.6289,41.7335
50.6413,41.7121
50.6413,41.7121
50.6413,41.7121
50.6805,41.5658
50.6805,41.4142
50.6413,41.2679
50.5655,41.1366
50.4584,41.0295
50.3927,40.9916
50.3271,40.9537
50.2539,40.9341
50.1808,40.9145
50.0292,40.9145
49.8829,40.9537
49.7516,41.0295
49.7516,41.0295
49.6445,41.1366
49.6445,41.1366
49.5687,41.2679
49.5526,41.3281
49.5295,41.4142
49.5295,41.5658
49.5388,41.6005
49.5687,41.7121
49.6067,41.7779
49.6445,41.8434
49.6445,41.8434
49.6485,41.8504
49.6462,41.8517
49.6666,41.9046
49.6526,41.9730
49.6038,42.0230
49.5905,42.0295
49.5811,42.0334
49.5811,42.0334
49.4172,42.1429
49.4172,42.1429
49.2779,42.2822
49.2779,42.2822
49.1684,42.4461
49.1684,42.4461
49.0929,42.6282
49.0929,42.6282
49.0545,42.8215
49.0545,42.8215
49.0545,43.0185
49.0545,43.0185
49.0545,43.0185
47.7255,43.0185
47.7255,43.0185
47.7255,42.8215
47.7255,42.8215
47.6871,42.6282
47.6871,42.6282
47.6871,42.6282
47.6870,42.6282
47.6116,42.4461
47.6116,42.4461
47.5021,42.2822
47.5021,42.2822
47.3628,42.1429
47.3628,42.1429
47.1989,42.0334
47.1989,42.0334
47.0168,41.9579
47.0168,41.9579
46.8235,41.9195
46.8235,41.9195
46.0265,41.9195
46.0265,41.9195
45.8332,41.9579
45.8332,41.9579
45.6511,42.0334
45.6511,42.0334
45.4872,42.1429
45.4872,42.1429
45.3479,42.2822
45.3479,42.2822
45.2384,42.4461
45.2384,42.4461
45.1629,42.6282
45.1629,42.6282
45.1245,42.8215
45.1245,42.8215
45.1245,43.0185
45.1245,43.0185
45.1245,43.0185
44.4005,43.0185
44.4005,40.7212
66.0495,40.7212
66.0495,40.8788
66.0803,41.0335
66.0803,41.0335
66.1406,41.1792
66.1406,41.1792
66.2282,41.3103
66.2282,41.3103
66.3397,41.4218
66.3397,41.4218
66.4708,41.5094
66.4708,41.5094
66.6069,41.5658
66.6165,41.5697
66.7712,41.6005
66.7712,41.6005
66.7712,41.6005
66.9288,41.6005
66.9288,41.6005
67.0835,41.5697
67.2292,41.5094
67.3603,41.4218
67.4718,41.3103
67.5594,41.1792
67.6197,41.0335
67.6505,40.8788
67.6505,40.7212
67.6505,40.7212
67.6505,40.7212
67.6197,40.5665
67.6197,40.5665
67.6197,40.5665
67.5594,40.4208
67.5594,40.4208
67.4718,40.2897
67.4718,40.2897
67.3603,40.1782
67.3603,40.1782
67.2292,40.0906
67.2292,40.0906
67.0835,40.0303
67.0835,40.0303
66.9288,39.9995
66.9288,39.9995
66.7712,39.9995
66.7712,39.9995
66.6165,40.0303
66.6165,40.0303
66.4708,40.0906
66.4708,40.0906
66.3397,40.1782
66.3397,40.1782
66.2282,40.2897
66.2282,40.2897
66.1406,40.4208
66.1406,40.4208
66.0803,40.5665
66.0803,40.5665
66.0495,40.7212
44.4005,40.7212
44.4005,37.2212
60.4495,37.2212
60.4495,37.3788
60.4803,37.5335
60.4803,37.5335
60.5406,37.6792
60.5406,37.6792
60.6282,37.8103
60.6282,37.8103
60.7397,37.9218
60.7397,37.9218
60.8708,38.0094
60.8708,38.0094
60.9474,38.0411
61.0018,38.0849
61.0238,38.1512
61.0066,38.2189
60.9688,38.2588
60.9397,38.2782
60.9397,38.2782
60.8282,38.3897
60.8282,38.3897
60.7406,38.5208
60.7406,38.5208
60.6803,38.6665
60.6803,38.6665
60.6495,38.8212
60.6495,38.9788
60.6803,39.1335
60.6803,39.1335
60.7406,39.2792
60.7406,39.2792
60.8282,39.4103
60.8282,39.4103
60.9397,39.5218
60.9397,39.5218
61.0708,39.6094
61.0708,39.6094
61.2165,39.6697
61.2165,39.6697
61.3712,39.7005
61.3712,39.7005
61.3712,39.7005
61.5288,39.7005
61.5288,39.7005
61.6835,39.6697
61.8292,39.6094
61.9603,39.5218
62.0718,39.4103
62.1594,39.2792
62.2197,39.1335
62.2505,38.9788
62.2505,38.8212
62.2505,38.8212
62.2505,38.8212
62.2197,38.6665
62.2041,38.6288
62.1594,38.5208
62.1594,38.5208
62.1238,38.4675
62.0818,38.4047
64.8523,38.4047
64.8523,38.5624
64.8830,38.7171
64.8830,38.7171
64.9434,38.8627
64.9434,38.8627
65.0310,38.9939
65.0310,38.9939
65.1425,39.1053
65.1425,39.1054
65.2736,39.1930
65.2736,39.1930
65.3999,39.2453
65.4193,39.2533
65.5494,39.2792
65.5739,39.2841
65.5739,39.2841
65.5739,39.2841
65.7316,39.2841
65.7316,39.2841
65.8863,39.2533
65.9333,39.2338
66.0028,39.2263
66.0497,39.2453
66.0708,39.2594
66.0708,39.2594
66.0708,39.2594
66.2165,39.3197
66.2165,39.3197
66.3712,39.3505
66.3712,39.3505
66.3712,39.3505
66.5288,39.3505
66.5288,39.3505
66.6835,39.3197
66.8292,39.2594
66.9603,39.1718
67.0718,39.0603
67.1594,38.9292
67.2197,38.7835
67.2505,38.6288
67.2505,38.4712
67.2505,38.4712
67.2505,38.4712
67.2197,38.3165
67.2197,38.3165
67.2039,38.2782
67.1594,38.1708
67.1594,38.1708
67.0718,38.0397
67.0718,38.0397
66.9603,37.9282
66.9603,37.9282
66.8292,37.8406
66.8292,37.8406
66.6835,37.7803
66.6835,37.7803
66.5288,37.7495
66.5288,37.7495
66.3712,37.7495
66.3712,37.7495
66.2165,37.7803
66.2165,37.7803
66.1694,37.7998
66.1000,37.8072
66.0531,37.7883
66.0319,37.7742
66.0319,37.7742
66.0319,37.7742
66.0319,37.7742
66.0319,37.7742
65.8863,37.7138
65.8862,37.7138
65.7316,37.6831
65.7316,37.6831
65.5739,37.6831
65.5739,37.6831
65.4193,37.7138
65.4193,37.7138
65.2736,37.7742
65.2736,37.7742
65.1425,37.8618
65.1425,37.8618
65.0310,37.9733
65.0310,37.9733
64.9434,38.1044
64.9434,38.1044
64.8830,38.2501
64.8830,38.2501
64.8523,38.4047
62.0818,38.4047
62.0718,38.3897
62.0718,38.3897
61.9603,38.2782
61.9603,38.2782
61.8292,38.1906
61.8292,38.1906
61.7526,38.1589
61.6982,38.1151
61.6762,38.0488
61.6934,37.9811
61.7312,37.9412
61.7404,37.9350
61.7603,37.9218
61.8718,37.8103
61.9594,37.6792
62.0197,37.5335
62.0505,37.3788
62.0505,37.2212
62.0505,37.2212
62.0505,37.2212
62.0197,37.0665
62.0197,37.0665
62.0146,37.0542
61.9594,36.9208
61.9594,36.9208
61.8718,36.7897
61.8718,36.7897
61.7603,36.6782
61.7603,36.6782
61.6375,36.5962
65.6745,36.5962
65.6745,36.7538
65.7053,36.9085
65.7053,36.9085
65.7656,37.0542
65.7656,37.0542
65.8532,37.1853
65.8532,37.1853
65.9647,37.2968
65.9647,37.2968
66.0958,37.3844
66.0958,37.3844
66.2415,37.4447
66.2415,37.4447
66.3962,37.4755
66.3962,37.4755
66.3962,37.4755
66.5538,37.4755
66.5538,37.4755
66.7085,37.4447
66.8542,37.3844
66.9853,37.2968
67.0968,37.1853
67.1844,37.0542
67.2447,36.9085
67.2755,36.7538
67.2755,36.5962
67.2755,36.5962
67.2755,36.5962
67.2624,36.5303
67.2447,36.4415
67.2447,36.4415
67.1844,36.2958
67.1844,36.2958
67.0968,36.1647
67.0968,36.1647
66.9853,36.0532
66.9853,36.0532
66.8542,35.9656
66.8542,35.9656
66.7085,35.9053
66.7085,35.9053
66.5538,35.8745
66.5538,35.8745
66.3962,35.8745
66.3962,35.8745
66.2415,35.9053
66.2415,35.9053
66.0958,35.9656
66.0958,35.9656
65.9647,36.0532
65.9647,36.0532
65.8532,36.1647
65.8532,36.1647
65.7656,36.2958
65.7656,36.2958
65.7053,36.4415
65.7053,36.4415
65.6745,36.5962
61.6375,36.5962
61.6292,36.5906
61.6292,36.5906
61.4835,36.5303
61.4835,36.5303
61.3288,36.4995
61.3288,36.4995
61.1712,36.4995
61.1712,36.4995
61.0165,36.5303
61.0165,36.5303
60.8708,36.5906
60.8708,36.5906
60.7397,36.6782
60.7397,36.6782
60.6282,36.7897
60.6282,36.7897
60.5406,36.9208
60.5406,36.9208
60.4803,37.0665
60.4803,37.0665
60.4495,37.2212
44.4005,37.2212
44.4005,34.3785
45.1245,34.3785
45.1629,34.5718
45.1629,34.5718
45.2384,34.7539
45.2384,34.7539
45.3479,34.9178
45.3479,34.9178
45.4872,35.0571
45.4872,35.0571
45.6511,35.1666
45.6511,35.1666
45.8332,35.2420
45.8332,35.2421
45.8332,35.2421
45.8332,35.2421
46.0265,35.2805
46.0265,35.2805
46.8235,35.2805
46.9795,35.2495
47.0168,35.2421
47.1989,35.1666
47.3628,35.0571
47.5021,34.9178
47.6116,34.7539
47.6871,34.5718
47.7211,34.4008
47.7255,34.3785
49.0545,34.3785
49.0929,34.5718
49.0929,34.5718
49.1684,34.7539
49.1684,34.7539
49.2779,34.9178
49.2779,34.9178
49.4172,35.0571
49.4172,35.0571
49.5811,35.1666
49.5811,35.1666
49.5811,35.1666
49.5905,35.1705
49.6449,35.2144
49.6670,35.2807
49.6497,35.3484
49.6466,35.3530
49.5687,35.4879
49.5295,35.6342
49.5295,35.7858
49.5687,35.9321
49.5880,35.9656
49.6445,36.0634
49.7516,36.1705
49.8829,36.2463
50.0292,36.2855
50.0292,36.2855
50.1808,36.2855
50.1808,36.2855
50.3271,36.2463
50.4584,36.1705
50.5655,36.0634
50.6413,35.9321
50.6805,35.7858
50.6805,35.6342
50.6770,35.6212
72.6495,35.6212
72.6495,35.7788
72.6803,35.9335
72.6803,35.9335
72.7406,36.0792
72.7406,36.0792
72.8282,36.2103
72.8282,36.2103
72.9397,36.3218
72.9397,36.3218
73.0708,36.4094
73.0708,36.4094
73.2165,36.4697
73.2165,36.4697
73.3661,36.4995
73.3712,36.5005
73.3712,36.5005
73.3712,36.5005
73.5288,36.5005
73.5288,36.5005
73.6835,36.4697
73.8292,36.4094
73.9603,36.3218
74.0718,36.2103
74.1594,36.0792
74.1659,36.0634
74.2197,35.9335
74.2197,35.9335
74.2505,35.7788
74.2505,35.6212
74.2505,35.6212
74.2505,35.6212
74.2491,35.6143
74.2455,35.5962
76.6745,35.5962
76.6745,35.7538
76.7053,35.9085
76.7053,35.9085
76.7656,36.0542
76.7656,36.0542
76.8532,36.1853
76.8532,36.1853
76.9647,36.2968
76.9647,36.2968
77.0958,36.3844
77.0958,36.3844
77.2337,36.4415
77.2415,36.4447
77.3672,36.4697
77.3962,36.4755
77.3962,36.4755
77.3962,36.4755
77.5538,36.4755
77.5538,36.4755
77.7085,36.4447
77.8542,36.3844
77.9853,36.2968
78.0968,36.1853
78.1844,36.0542
78.2447,35.9085
78.2755,35.7538
78.2755,35.5962
78.2755,35.5962
78.2755,35.5962
78.2540,35.4879
78.2447,35.4415
78.2096,35.3566
78.1844,35.2958
78.1844,35.2958
78.0968,35.1647
78.0968,35.1647
77.9853,35.0532
77.9853,35.0532
77.8542,34.9656
77.8542,34.9656
77.7085,34.9053
77.7085,34.9053
77.5538,34.8745
77.5538,34.8745
77.3962,34.8745
77.3962,34.8745
77.2415,34.9053
77.2415,34.9053
77.0958,34.9656
77.0958,34.9656
76.9647,35.0532
76.9647,35.0532
76.8532,35.1647
76.8532,35.1647
76.7656,35.2958
76.7656,35.2958
76.7053,35.4415
76.7053,35.4415
76.6745,35.5962
74.2455,35.5962
74.2197,35.4665
74.2197,35.4665
74.2197,35.4665
74.1742,35.3566
74.1594,35.3208
74.1594,35.3208
74.0718,35.1897
74.0718,35.1897
73.9603,35.0782
73.9603,35.0782
73.8292,34.9906
73.8292,34.9906
73.6835,34.9303
73.6835,34.9303
73.5288,34.8995
73.5288,34.8995
73.3712,34.8995
73.3712,34.8995
73.2165,34.9303
73.2165,34.9303
73.0708,34.9906
73.0708,34.9906
72.9397,35.0782
72.9397,35.0782
72.8282,35.1897
72.8282,35.1897
72.7406,35.3208
72.7406,35.3208
72.6803,35.4665
72.6803,35.4665
72.6495,35.6212
50.6770,35.6212
50.6413,35.4879
50.6290,35.4665
50.6289,35.4665
50.6125,35.3986
50.6353,35.3326
50.6902,35.2894
50.7363,35.2805
51.2535,35.2805
51.4095,35.2495
51.4468,35.2421
51.6289,35.1666
51.7928,35.0571
51.9321,34.9178
52.0416,34.7539
52.0635,34.7012
70.0495,34.7012
70.0495,34.8588
70.0803,35.0135
70.0803,35.0135
70.1406,35.1592
70.1406,35.1592
70.2282,35.2903
70.2282,35.2903
70.3397,35.4018
70.3397,35.4018
70.4708,35.4894
70.4708,35.4894
70.6165,35.5497
70.6165,35.5497
70.7712,35.5805
70.7712,35.5805
70.7712,35.5805
70.9288,35.5805
70.9288,35.5805
71.0835,35.5497
71.2024,35.5005
71.2024,35.5005
71.2151,35.4952
71.2292,35.4894
71.3603,35.4018
71.4718,35.2903
71.5557,35.1647
71.5618,35.1556
71.6154,35.1108
71.6649,35.1005
71.7288,35.1005
71.7288,35.1005
71.8835,35.0697
72.0193,35.0135
72.0292,35.0094
72.0292,35.0094
72.0292,35.0094
72.1603,34.9218
72.2718,34.8103
72.3594,34.6792
72.4197,34.5335
72.4505,34.3788
72.4505,34.2212
72.4505,34.2212
72.4505,34.2212
72.4197,34.0665
72.3880,33.9898
72.3805,33.9204
72.4118,33.8579
72.4719,33.8222
72.4783,33.8208
72.4835,33.8197
72.6292,33.7594
72.7603,33.6718
72.8718,33.5603
72.9594,33.4292
73.0197,33.2835
73.0505,33.1288
73.0505,32.9712
73.0505,32.9712
73.0505,32.9712
73.0322,32.8792
73.0197,32.8165
72.9968,32.7610
72.9594,32.6708
72.9594,32.6708
72.8718,32.5397
72.8718,32.5397
72.7603,32.4282
72.7603,32.4282
72.7497,32.4212
73.3995,32.4212
73.3995,32.5788
73.4303,32.7335
73.4303,32.7335
73.4906,32.8792
73.4906,32.8792
73.5782,33.0103
73.5782,33.0103
73.6897,33.1218
73.6897,33.1218
73.8208,33.2094
73.8208,33.2094
73.8998,33.2421
73.9665,33.2697
74.1186,33.3000
74.1212,33.3005
74.1212,33.3005
74.1212,33.3005
74.2788,33.3005
74.2788,33.3005
74.4335,33.2697
74.5792,33.2094
74.7103,33.1218
74.8218,33.0103
74.9094,32.8792
74.9697,32.7335
75.0005,32.5788
75.0005,32.4212
75.0005,32.4212
75.0005,32.4212
74.9896,32.3665
74.9697,32.2665
74.9508,32.2208
74.9094,32.1208
74.9094,32.1208
74.8218,31.9897
74.8218,31.9897
74.7103,31.8782
74.7103,31.8782
74.5792,31.7906
74.5792,31.7906
74.4335,31.7303
74.4335,31.7303
74.2788,31.6995
74.2788,31.6995
74.1212,31.6995
74.1212,31.6995
73.9665,31.7303
73.9665,31.7303
73.8208,31.7906
73.8208,31.7906
73.6897,31.8782
73.6897,31.8782
73.5782,31.9897
73.5782,31.9897
73.4906,32.1208
73.4906,32.1208
73.4303,32.2665
73.4303,32.2665
73.3995,32.4212
72.7497,32.4212
72.6292,32.3406
72.6292,32.3406
72.4835,32.2803
72.4835,32.2803
72.3288,32.2495
72.3288,32.2495
72.1712,32.2495
72.1712,32.2495
72.0165,32.2803
72.0165,32.2803
71.8708,32.3406
71.8708,32.3406
71.7397,32.4282
71.7397,32.4282
71.6282,32.5397
71.6282,32.5397
71.5406,32.6708
71.5406,32.6708
71.4803,32.8165
71.4803,32.8165
71.4495,32.9712
71.4495,33.1288
71.4803,33.2835
71.4803,33.2835
71.5120,33.3602
71.5195,33.4296
71.4882,33.4921
71.4281,33.5278
71.4217,33.5292
71.4165,33.5303
71.4165,33.5303
71.2708,33.5906
71.2708,33.5906
71.1397,33.6782
71.1397,33.6782
71.0282,33.7897
71.0282,33.7897
70.9382,33.9244
70.8846,33.9692
70.8351,33.9795
70.7712,33.9795
70.6165,34.0103
70.6165,34.0103
70.4708,34.0706
70.4708,34.0706
70.3397,34.1582
70.3397,34.1582
70.2282,34.2697
70.2282,34.2697
70.1406,34.4008
70.1406,34.4008
70.0803,34.5465
70.0803,34.5465
70.0495,34.7012
52.0635,34.7012
52.1171,34.5718
52.1511,34.4008
52.1555,34.3785
52.1555,34.1815
52.1171,33.9882
52.1171,33.9882
52.1171,33.9882
52.0906,33.9244
52.0416,33.8061
52.0416,33.8061
51.9321,33.6422
51.9321,33.6422
51.8973,33.6074
51.8639,33.5461
51.8688,33.4764
51.9107,33.4205
51.9762,33.3961
52.0092,33.3981
52.0212,33.4005
52.1788,33.4005
52.1788,33.4005
52.3335,33.3697
52.4792,33.3094
52.4873,33.3040
68.6995,33.3040
68.6995,33.4617
68.7303,33.6163
68.7303,33.6163
68.7906,33.7620
68.7906,33.7620
68.8782,33.8931
68.8782,33.8931
68.9897,34.0046
68.9897,34.0046
69.1208,34.0922
69.1208,34.0922
69.2665,34.1525
69.2665,34.1526
69.4118,34.1815
69.4212,34.1833
69.4212,34.1833
69.4212,34.1833
69.5788,34.1833
69.5788,34.1833
69.7335,34.1526
69.8792,34.0922
70.0103,34.0046
70.1218,33.8931
70.2094,33.7620
70.2697,33.6163
70.3005,33.4617
70.3005,33.3040
70.3005,33.3040
70.3005,33.3040
70.2818,33.2102
70.2697,33.1493
70.2613,33.1288
70.2094,33.0036
70.2094,33.0036
70.1218,32.8725
70.1218,32.8725
70.0103,32.7610
70.0103,32.7610
69.8792,32.6734
69.8792,32.6734
69.7335,32.6131
69.7335,32.6131
69.5788,32.5823
69.5788,32.5823
69.4212,32.5823
69.4212,32.5823
69.2665,32.6131
69.2665,32.6131
69.1208,32.6734
69.1208,32.6734
68.9897,32.7610
68.9897,32.7610
68.8782,32.8725
68.8782,32.8725
68.7906,33.0036
68.7906,33.0036
68.7303,33.1493
68.7303,33.1493
68.6995,33.3040
52.4873,33.3040
52.6103,33.2218
52.6103,33.2218
52.6219,33.2102
52.7218,33.1103
52.7218,33.1103
52.8094,32.9792
52.8127,32.9712
52.8231,32.9462
52.8697,32.8335
52.9005,32.6788
52.9005,32.5212
52.9005,32.5212
52.9005,32.5212
52.8820,32.4282
52.8697,32.3665
52.8697,32.3665
52.8094,32.2208
52.8094,32.2208
52.7218,32.0897
52.7218,32.0897
52.6103,31.9782
52.6103,31.9782
52.4792,31.8906
52.4792,31.8906
52.3335,31.8303
52.3335,31.8303
52.1788,31.7995
52.1788,31.7995
52.0212,31.7995
52.0212,31.7995
51.8665,31.8303
51.8665,31.8303
51.7208,31.8906
51.7208,31.8906
51.5897,31.9782
51.5897,31.9782
51.4782,32.0897
51.4782,32.0897
51.3906,32.2208
51.3906,32.2208
51.3303,32.3665
51.3303,32.3665
51.2995,32.5212
51.2995,32.6788
51.3303,32.8335
51.3303,32.8335
51.3906,32.9792
51.3906,32.9792
51.4767,33.1081
51.4976,33.1747
51.4791,33.2421
51.4271,33.2888
51.3582,33.3000
51.3494,33.2986
51.2535,33.2795
51.2535,33.2795
49.9565,33.2795
49.9565,33.2795
49.7632,33.3179
49.7632,33.3179
49.5811,33.3934
49.5811,33.3934
49.4172,33.5029
49.4172,33.5029
49.2779,33.6422
49.2779,33.6422
49.1684,33.8061
49.1684,33.8061
49.0929,33.9882
49.0929,33.9882
49.0545,34.1815
49.0545,34.1815
49.0545,34.3785
49.0545,34.3785
49.0545,34.3785
47.7255,34.3785
47.7255,34.1815
47.6871,33.9882
47.6871,33.9882
47.6871,33.9882
47.6606,33.9244
47.6116,33.8061
47.6116,33.8061
47.5021,33.6422
47.5021,33.6422
47.3628,33.5029
47.3628,33.5029
47.1989,33.3934
47.1989,33.3934
47.0168,33.3179
47.0168,33.3179
46.8235,33.2795
46.8235,33.2795
46.0265,33.2795
46.0265,33.2795
45.8332,33.3179
45.8332,33.3179
45.6511,33.3934
45.6511,33.3934
45.4872,33.5029
45.4872,33.5029
45.3479,33.6422
45.3479,33.6422
45.2384,33.8061
45.2384,33.8061
45.1629,33.9882
45.1629,33.9882
45.1245,34.1815
45.1245,34.1815
45.1245,34.3785
45.1245,34.3785
45.1245,34.3785
44.4005,34.3785
44.4005,30.2212
51.0495,30.2212
51.0495,30.3788
51.0803,30.5335
51.0803,30.5335
51.1406,30.6792
51.1406,30.6792
51.2282,30.8103
51.2282,30.8103
51.3397,30.9218
51.3397,30.9218
51.4708,31.0094
51.4708,31.0094
51.6165,31.0697
51.6165,31.0697
51.7712,31.1005
51.7712,31.1005
51.7712,31.1005
51.9288,31.1005
51.9288,31.1005
52.0835,31.0697
52.2292,31.0094
52.3603,30.9218
52.4718,30.8103
52.5313,30.7212
61.6995,30.7212
61.6995,30.8788
61.7303,31.0335
61.7303,31.0335
61.7906,31.1792
61.7906,31.1792
61.8782,31.3103
61.8782,31.3103
61.9897,31.4218
61.9897,31.4218
62.1208,31.5094
62.1208,31.5094
62.2399,31.5587
62.2665,31.5697
62.4212,31.6005
62.4212,31.6005
62.4212,31.6005
62.5788,31.6005
62.5788,31.6005
62.7335,31.5697
62.8792,31.5094
63.0103,31.4218
63.1218,31.3103
63.2094,31.1792
63.2697,31.0335
63.3005,30.8788
63.3005,30.7212
63.2983,30.7101
63.2983,30.7101
67.1151,30.7101
67.1151,30.8678
67.1458,31.0225
67.1458,31.0225
67.2062,31.1682
67.2062,31.1682
67.2938,31.2993
67.2938,31.2993
67.4053,31.4108
67.4053,31.4108
67.5364,31.4984
67.5364,31.4984
67.6231,31.5343
67.6821,31.5587
67.8367,31.5895
67.8367,31.5895
67.8367,31.5895
67.9944,31.5895
67.9944,31.5895
68.1491,31.5587
68.2750,31.5066
68.2947,31.4984
68.2947,31.4984
68.2948,31.4984
68.4259,31.4108
68.5374,31.2993
68.6250,31.1682
68.6853,31.0225
68.7161,30.8678
68.7161,30.7101
68.7161,30.7101
68.7161,30.7101
68.7018,30.6386
68.6982,30.6204
69.0460,30.6204
69.0460,30.7781
69.0767,30.9328
69.0767,30.9328
69.1371,31.0785
69.1371,31.0785
69.2247,31.2096
69.2247,31.2096
69.3362,31.3211
69.3362,31.3211
69.4673,31.4087
69.4673,31.4087
69.6130,31.4690
69.6130,31.4690
69.7646,31.4992
69.7676,31.4998
69.7676,31.4998
69.7676,31.4998
69.9253,31.4998
69.9314,31.4992
69.9316,31.5012
69.9921,31.5066
70.0344,31.5343
70.0897,31.5897
70.0898,31.5897
70.2209,31.6773
70.2209,31.6773
70.3488,31.7303
70.3665,31.7376
70.5212,31.7684
70.5212,31.7684
70.5212,31.7684
70.6789,31.7684
70.6789,31.7684
70.8335,31.7376
70.9792,31.6773
71.1103,31.5897
71.2218,31.4782
71.3094,31.3471
71.3698,31.2014
71.4005,31.0467
71.4005,30.8890
71.4005,30.8890
71.4005,30.8890
71.3785,30.7781
71.3698,30.7344
71.3643,30.7212
71.3094,30.5887
71.3094,30.5887
71.2218,30.4576
71.2218,30.4576
71.1103,30.3461
71.1103,30.3461
70.9792,30.2585
70.9792,30.2585
70.8335,30.1982
70.8335,30.1981
70.6789,30.1674
70.6789,30.1674
70.5212,30.1674
70.5151,30.1680
70.5149,30.1660
70.4544,30.1606
70.4121,30.1329
70.3568,30.0775
70.3568,30.0775
70.2257,29.9899
70.2256,29.9899
70.0800,29.9296
70.0800,29.9296
69.9253,29.8988
69.9253,29.8988
69.7676,29.8988
69.7676,29.8988
69.6130,29.9296
69.6130,29.9296
69.4673,29.9899
69.4673,29.9899
69.3362,30.0775
69.3362,30.0775
69.2247,30.1890
69.2247,30.1890
69.1371,30.3201
69.1371,30.3201
69.0767,30.4658
69.0767,30.4658
69.0460,30.6204
68.6982,30.6204
68.6853,30.5555
68.6853,30.5555
68.6853,30.5555
68.6482,30.4658
68.6250,30.4098
68.6250,30.4098
68.5374,30.2787
68.5374,30.2787
68.4259,30.1672
68.4259,30.1672
68.2948,30.0796
68.2947,30.0796
68.1491,30.0193
68.1491,30.0192
67.9944,29.9885
67.9944,29.9885
67.8367,29.9885
67.8367,29.9885
67.6821,30.0192
67.6821,30.0193
67.5364,30.0796
67.5364,30.0796
67.4053,30.1672
67.4053,30.1672
67.2938,30.2787
67.2938,30.2787
67.2062,30.4098
67.2062,30.4098
67.1458,30.5555
67.1458,30.5555
67.1151,30.7101
63.2983,30.7101
63.2697,30.5665
63.2697,30.5665
63.2561,30.5335
63.2094,30.4208
63.2094,30.4208
63.1218,30.2897
63.1218,30.2897
63.0103,30.1782
63.0103,30.1782
62.8792,30.0906
62.8792,30.0906
62.7335,30.0303
62.7335,30.0303
62.5788,29.9995
62.5788,29.9995
62.4212,29.9995
62.4212,29.9995
62.2665,30.0303
62.2665,30.0303
62.1208,30.0906
62.1208,30.0906
61.9897,30.1782
61.9897,30.1782
61.8782,30.2897
61.8782,30.2897
61.7906,30.4208
61.7906,30.4208
61.7303,30.5665
61.7303,30.5665
61.6995,30.7212
52.5313,30.7212
52.5594,30.6792
52.6197,30.5335
52.6505,30.3788
52.6505,30.2212
52.6505,30.2212
52.6505,30.2212
52.6441,30.1890
52.6197,30.0665
52.6197,30.0665
52.5594,29.9208
52.5594,29.9208
52.4718,29.7897
52.4718,29.7897
52.3603,29.6782
52.3603,29.6782
52.2292,29.5906
52.2292,29.5906
52.0835,29.5303
52.0835,29.5303
51.9288,29.4995
51.9288,29.4995
51.7712,29.4995
51.7712,29.4995
51.6165,29.5303
51.6165,29.5303
51.4708,29.5906
51.4708,29.5906
51.3397,29.6782
51.3397,29.6782
51.2282,29.7897
51.2282,29.7897
51.1406,29.9208
51.1406,29.9208
51.0803,30.0665
51.0803,30.0665
51.0495,30.2212
44.4005,30.2212
44.4005,29.2245
44.4202,29.1575
44.4730,29.1117
44.5245,29.1005
78.9760,29.1005
Z" /> 
<path style="fill:#CE7D2C; fill-opacity:1.0000; stroke:none;fill-rule:evenodd;"
d="M 62.3841,46.7430
62.4499,46.8570
62.5430,46.9501
62.6570,47.0159
62.7206,47.0330
62.0883,47.6653
62.0883,47.6653
62.1424,47.7046
62.3318,47.8011
62.5056,47.8576
62.5633,47.8970
62.5905,47.9614
62.5785,48.0302
62.5313,48.0817
62.4673,48.0995
60.6943,48.0995
60.6273,48.0798
60.5815,48.0270
60.5716,47.9579
60.6006,47.8943
60.6560,47.8576
60.8284,47.8016
61.0178,47.7051
61.1041,47.6423
61.1898,47.5801
61.1898,47.5801
61.1898,47.5801
61.3401,47.4298
61.3401,47.4298
61.3401,47.4298
61.4259,47.3117
61.4651,47.2578
61.4698,47.2485
61.5178,47.1977
61.5856,47.1809
61.6517,47.2034
61.6908,47.2485
61.6954,47.2575
61.7347,47.3117
62.3670,46.6794
Z" /> 
</g>
<g style="fill:#FFFFFF; fill-opacity:1.0000; stroke:none;">
<circle cx="76.3500" cy="30.0500" r="0.1500" /> 
</g>
<g style="fill:#FFFFFF; fill-opacity:1.0000; stroke:none;">
<circle cx="50.6495" cy="30.7750" r="0.1500" /> 
</g>
<g style="fill:#FFFFFF; fill-opacity:1.0000; stroke:none;">
<circle cx="76.3500" cy="32.2500" r="0.1500" /> 
</g>
<g style="fill:#FFFFFF; fill-opacity:1.0000; stroke:none;">
<circle cx="63.3000" cy="38.2000" r="0.1500" /> 
</g>
<g style="fill:#FFFFFF; fill-opacity:1.0000; stroke:none;">
<circle cx="66.3000" cy="32.6000" r="0.1500" /> 
</g>
<g style="fill:#FFFFFF; fill-opacity:1.0000; stroke:none;">
<circle cx="77.7500" cy="31.3000" r="0.1500" /> 
</g>
<g style="fill:#FFFFFF; fill-opacity:1.0000; stroke:none;">
<circle cx="70.1500" cy="38.4000" r="0.1500" /> 
</g>
<g style="fill:#FFFFFF; fill-opacity:1.0000; stroke:none;">
<circle cx="64.5000" cy="32.8000" r="0.1500" /> 
</g>
<g style="fill:#FFFFFF; fill-opacity:1.0000; stroke:none;">
<circle cx="54.5000" cy="37.3500" r="0.1500" /> 
</g>
<g style="fill:#FFFFFF; fill-opacity:1.0000; stroke:none;">
<circle cx="76.3500" cy="44.3000" r="0.1500" /> 
</g>
<g style="fill:#FFFFFF; fill-opacity:1.0000; stroke:none;">
<circle cx="53.5000" cy="33.0000" r="0.1500" /> 
</g>
<g style="fill:#FFFFFF; fill-opacity:1.0000; stroke:none;">
<circle cx="73.6000" cy="45.2500" r="0.1500" /> 
</g>
<g style="fill:#FFFFFF; fill-opacity:1.0000; stroke:none;">
<circle cx="54.0000" cy="41.0500" r="0.1500" /> 
</g>
<g style="fill:#FFFFFF; fill-opacity:1.0000; stroke:none;">
<circle cx="63.7000" cy="41.1000" r="0.1500" /> 
</g>
<g style="fill:#FFFFFF; fill-opacity:1.0000; stroke:none;">
<circle cx="73.9500" cy="37.0500" r="0.1500" /> 
</g>
<g style="fill:#FFFFFF; fill-opacity:1.0000; stroke:none;">
<circle cx="75.6000" cy="46.7000" r="0.1500" /> 
</g>
<g style="fill:#FFFFFF; fill-opacity:1.0000; stroke:none;">
<circle cx="77.0500" cy="32.2500" r="0.1500" /> 
</g>
<g style="fill:#FFFFFF; fill-opacity:1.0000; stroke:none;">
<circle cx="76.3500" cy="47.5000" r="0.1500" /> 
</g>
<g style="fill:#FFFFFF; fill-opacity:1.0000; stroke:none;">
<circle cx="76.3500" cy="33.5000" r="0.1500" /> 
</g>
<g style="fill:#FFFFFF; fill-opacity:1.0000; stroke:none;">
<circle cx="74.3000" cy="42.0500" r="0.1500" /> 
</g>
<g style="fill:#FFFFFF; fill-opacity:1.0000; stroke:none;">
<circle cx="66.3000" cy="30.0000" r="0.1500" /> 
</g>
<g style="fill:#FFFFFF; fill-opacity:1.0000; stroke:none;">
<circle cx="77.0500" cy="31.3000" r="0.1500" /> 
</g>
<g style="fill:#FFFFFF; fill-opacity:1.0000; stroke:none;">
<circle cx="76.3500" cy="45.3000" r="0.1500" /> 
</g>
<g style="fill:#FFFFFF; fill-opacity:1.0000; stroke:none;">
<circle cx="75.0000" cy="42.0500" r="0.1500" /> 
</g>
<g style="fill:#FFFFFF; fill-opacity:1.0000; stroke:none;">
<circle cx="77.7500" cy="32.2500" r="0.1500" /> 
</g>
<g style="fill:#FFFFFF; fill-opacity:1.0000; stroke:none;">
<circle cx="74.3000" cy="45.2500" r="0.1500" /> 
</g>
<g style="fill:#FFFFFF; fill-opacity:1.0000; stroke:none;">
<circle cx="65.1000" cy="46.7500" r="0.1500" /> 
</g>
<g style="fill:#FFFFFF; fill-opacity:1.0000; stroke:none;">
<circle cx="46.1000" cy="30.5500" r="0.1500" /> 
</g>
<g style="fill:#FFFFFF; fill-opacity:1.0000; stroke:none;">
<circle cx="76.8750" cy="37.0500" r="0.1500" /> 
</g>
<g style="fill:#FFFFFF; fill-opacity:1.0000; stroke:none;">
<circle cx="77.0500" cy="47.5000" r="0.1500" /> 
</g>
<g style="fill:#FFFFFF; fill-opacity:1.0000; stroke:none;">
<circle cx="77.7500" cy="30.0500" r="0.1500" /> 
</g>
<g style="fill:#FFFFFF; fill-opacity:1.0000; stroke:none;">
<circle cx="58.0000" cy="36.2000" r="0.1500" /> 
</g>
<g style="fill:#FFFFFF; fill-opacity:1.0000; stroke:none;">
<circle cx="70.8500" cy="33.3000" r="0.1500" /> 
</g>
<g style="fill:#FFFFFF; fill-opacity:1.0000; stroke:none;">
<circle cx="65.1000" cy="45.3500" r="0.1500" /> 
</g>
<g style="fill:#FFFFFF; fill-opacity:1.0000; stroke:none;">
<circle cx="64.4000" cy="41.1000" r="0.1500" /> 
</g>
<g style="fill:#FFFFFF; fill-opacity:1.0000; stroke:none;">
<circle cx="75.0000" cy="44.2500" r="0.1500" /> 
</g>
<g style="fill:#FFFFFF; fill-opacity:1.0000; stroke:none;">
<circle cx="65.1000" cy="46.0500" r="0.1500" /> 
</g>
<g style="fill:#FFFFFF; fill-opacity:1.0000; stroke:none;">
<circle cx="77.0500" cy="46.5000" r="0.1500" /> 
</g>
<g style="fill:#FFFFFF; fill-opacity:1.0000; stroke:none;">
<circle cx="74.2000" cy="30.4000" r="0.1500" /> 
</g>
<g style="fill:#FFFFFF; fill-opacity:1.0000; stroke:none;">
<circle cx="77.0500" cy="33.5000" r="0.1500" /> 
</g>
<g style="fill:#FFFFFF; fill-opacity:1.0000; stroke:none;">
<circle cx="74.3000" cy="44.2500" r="0.1500" /> 
</g>
<g style="fill:#FFFFFF; fill-opacity:1.0000; stroke:none;">
<circle cx="73.6000" cy="44.2500" r="0.1500" /> 
</g>
<g style="fill:#FFFFFF; fill-opacity:1.0000; stroke:none;">
<circle cx="52.9000" cy="35.4000" r="0.1500" /> 
</g>
<g style="fill:#FFFFFF; fill-opacity:1.0000; stroke:none;">
<circle cx="77.7500" cy="46.5000" r="0.1500" /> 
</g>
<g style="fill:#FFFFFF; fill-opacity:1.0000; stroke:none;">
<circle cx="75.0000" cy="45.2500" r="0.1500" /> 
</g>
<g style="fill:#FFFFFF; fill-opacity:1.0000; stroke:none;">
<circle cx="66.7000" cy="47.3000" r="0.1500" /> 
</g>
<g style="fill:#FFFFFF; fill-opacity:1.0000; stroke:none;">
<circle cx="73.6000" cy="42.0500" r="0.1500" /> 
</g>
<g style="fill:#FFFFFF; fill-opacity:1.0000; stroke:none;">
<circle cx="56.4826" cy="39.0290" r="0.1500" /> 
</g>
<g style="fill:#FFFFFF; fill-opacity:1.0000; stroke:none;">
<circle cx="52.9000" cy="41.8000" r="0.1500" /> 
</g>
<g style="fill:#FFFFFF; fill-opacity:1.0000; stroke:none;">
<circle cx="77.0500" cy="44.3000" r="0.1500" /> 
</g>
<g style="fill:#FFFFFF; fill-opacity:1.0000; stroke:none;">
<circle cx="65.1000" cy="41.1000" r="0.1500" /> 
</g>
<g style="fill:#FFFFFF; fill-opacity:1.0000; stroke:none;">
<circle cx="77.7500" cy="47.5000" r="0.1500" /> 
</g>
<g style="fill:#FFFFFF; fill-opacity:1.0000; stroke:none;">
<circle cx="76.3500" cy="46.5000" r="0.1500" /> 
</g>
<g style="fill:#FFFFFF; fill-opacity:1.0000; stroke:none;">
<circle cx="61.0000" cy="31.1000" r="0.1500" /> 
</g>
<g style="fill:#FFFFFF; fill-opacity:1.0000; stroke:none;">
<circle cx="76.3500" cy="31.3000" r="0.1500" /> 
</g>
<g style="fill:#FFFFFF; fill-opacity:1.0000; stroke:none;">
<circle cx="50.7000" cy="46.2000" r="0.1500" /> 
</g>
<g style="fill:#FFFFFF; fill-opacity:1.0000; stroke:none;">
<circle cx="77.0500" cy="45.3000" r="0.1500" /> 
</g>
<g style="fill:#FFFFFF; fill-opacity:1.0000; stroke:none;">
<circle cx="77.7500" cy="44.3000" r="0.1500" /> 
</g>
<g style="fill:#FFFFFF; fill-opacity:1.0000; stroke:none;">
<circle cx="77.7500" cy="45.3000" r="0.1500" /> 
</g>
<g style="fill:#FFFFFF; fill-opacity:1.0000; stroke:none;">
<circle cx="77.0500" cy="30.0500" r="0.1500" /> 
</g>
<g style="fill:#FFFFFF; fill-opacity:1.0000; stroke:none;">
<circle cx="62.3000" cy="35.4000" r="0.1500" /> 
</g>
<g style="fill:#FFFFFF; fill-opacity:1.0000; stroke:none;">
<circle cx="46.1000" cy="46.5500" r="0.1500" /> 
</g>
<g style="fill:#FFFFFF; fill-opacity:1.0000; stroke:none;">
<circle cx="77.7500" cy="33.5000" r="0.1500" /> 
</g>
<g style="fill:#FFFFFF; fill-opacity:1.0000; stroke:none;">
<circle cx="74.2000" cy="32.5000" r="0.1500" /> 
</g>
<g style="fill:#FFFFFF; fill-opacity:1.0000; stroke:none;">
<circle cx="66.4750" cy="36.6750" r="0.1500" /> 
</g>
<g style="fill:#FFFFFF; fill-opacity:1.0000; stroke:none;">
<circle cx="52.1000" cy="32.6000" r="0.1500" /> 
</g>
<g style="fill:#FFFFFF; fill-opacity:1.0000; stroke:none;">
<circle cx="52.1000" cy="44.5000" r="0.1500" /> 
</g>
<g style="fill:#FFFFFF; fill-opacity:1.0000; stroke:none;">
<circle cx="67.9156" cy="30.7890" r="0.1500" /> 
</g>
<g style="fill:#FFFFFF; fill-opacity:1.0000; stroke:none;">
<circle cx="62.5000" cy="30.8000" r="0.1500" /> 
</g>
<g style="fill:#FFFFFF; fill-opacity:1.0000; stroke:none;">
<circle cx="77.4750" cy="35.6750" r="0.1500" /> 
</g>
<g style="fill:#FFFFFF; fill-opacity:1.0000; stroke:none;">
<circle cx="66.8500" cy="40.8000" r="0.1500" /> 
</g>
<g style="fill:#FFFFFF; fill-opacity:1.0000; stroke:none;">
<circle cx="70.8500" cy="34.7800" r="0.1500" /> 
</g>
<g style="fill:#FFFFFF; fill-opacity:1.0000; stroke:none;">
<circle cx="71.8625" cy="42.0375" r="0.1500" /> 
</g>
<g style="fill:#FFFFFF; fill-opacity:1.0000; stroke:none;">
<circle cx="49.0000" cy="44.9000" r="0.1500" /> 
</g>
<g style="fill:#FFFFFF; fill-opacity:1.0000; stroke:none;">
<circle cx="73.4500" cy="35.7000" r="0.1500" /> 
</g>
<g style="fill:#FFFFFF; fill-opacity:1.0000; stroke:none;">
<circle cx="72.2500" cy="33.0500" r="0.1500" /> 
</g>
<g style="fill:#FFFFFF; fill-opacity:1.0000; stroke:none;">
<circle cx="51.8500" cy="30.3000" r="0.1500" /> 
</g>
<g style="fill:#FFFFFF; fill-opacity:1.0000; stroke:none;">
<circle cx="61.4500" cy="38.9000" r="0.1500" /> 
</g>
<g style="fill:#FFFFFF; fill-opacity:1.0000; stroke:none;">
<circle cx="65.6528" cy="38.4836" r="0.1500" /> 
</g>
<g style="fill:#FFFFFF; fill-opacity:1.0000; stroke:none;">
<circle cx="66.4500" cy="38.5500" r="0.1500" /> 
</g>
<g style="fill:#FFFFFF; fill-opacity:1.0000; stroke:none;">
<circle cx="61.2500" cy="37.3000" r="0.1500" /> 
</g>
<g style="fill:#FFFFFF; fill-opacity:1.0000; stroke:none;">
<circle cx="69.9711" cy="42.5859" r="0.1500" /> 
</g>
<g style="fill:#FFFFFF; fill-opacity:1.0000; stroke:none;">
<circle cx="62.3500" cy="44.3000" r="0.1500" /> 
</g>
<g style="fill:#FFFFFF; fill-opacity:1.0000; stroke:none;">
<circle cx="69.5000" cy="33.3828" r="0.1500" /> 
</g>
<g style="fill:#FFFFFF; fill-opacity:1.0000; stroke:none;">
<circle cx="70.6000" cy="30.9679" r="0.1500" /> 
</g>
<g style="fill:#FFFFFF; fill-opacity:1.0000; stroke:none;">
<circle cx="69.8465" cy="30.6993" r="0.1500" /> 
</g>
<g style="fill:#FFFFFF; fill-opacity:1.0000; stroke:none;">
<circle cx="71.6500" cy="34.3000" r="0.1500" /> 
</g>
<g style="fill:#000000; fill-opacity:1.0000; stroke:none;">
<circle cx="50.1050" cy="35.7100" r="0.3250" /> 
</g>
<g style="fill:#000000; fill-opacity:1.0000; stroke:none;">
<circle cx="50.1050" cy="41.4900" r="0.3250" /> 
</g>
<g style="fill:none; 
stroke:#FFFFFF; stroke-width:0.6000; stroke-opacity:1; 
stroke-linecap:round; stroke-linejoin:round;">
<path d="M51.1550 34.2800
L50.0550 34.2800
" />
<path d="M46.7250 34.2800
L46.1250 34.2800
" />
<path d="M51.1550 42.9200
L50.0550 42.9200
" />
<path d="M46.7250 42.9200
L46.1250 42.9200
" />
</g>
<g style="fill:#FFFFFF; fill-opacity:1.0000; stroke:none;">
<circle cx="78.8500" cy="45.0500" r="0.1500" /> 
</g>
<g style="fill:#FFFFFF; fill-opacity:1.0000; stroke:none;">
<circle cx="55.2300" cy="46.5500" r="0.5000" /> 
</g>
<g style="fill:#FFFFFF; fill-opacity:1.0000; stroke:none;">
<circle cx="57.7700" cy="46.5500" r="0.5000" /> 
</g>
<g style="fill:#FFFFFF; fill-opacity:1.0000; stroke:none;">
<circle cx="60.3100" cy="46.5500" r="0.5000" /> 
</g>
<g style="fill:#FFFFFF; fill-opacity:1.0000; stroke:none;">
<circle cx="62.8500" cy="46.5500" r="0.5000" /> 
</g> 
</svg>
